<svg width="629" height="60" viewBox="0 0 629 60" fill="none" xmlns="http://www.w3.org/2000/svg">
<g clip-path="url(#clip0_1_10676)">
<path d="M19.3983 34.538L24.6825 30.0035L19.3983 25.462L21.3116 23.8169L28.502 30.0035L21.3116 36.183L19.3983 34.538Z" fill="#FFFBFA" fill-opacity="0.16"/>
<path d="M28.166 12.4702L27.2059 13.2998L26.3088 14.0731H19.1395L20.7303 12.4702H28.166Z" fill="#FFFBFA" fill-opacity="0.16"/>
<path d="M17.8356 39.1989L15.2916 37.0054L12.9228 34.9667H10.6662L4.88446 29.9963L10.6662 25.026H12.9158L15.2846 22.9872L17.8286 20.7938H15.5719L19.8819 17.0889L23.6523 20.3228L12.4112 29.9963L23.6523 39.6699L19.8819 42.9038L15.5719 39.1989H17.8356ZM21.5499 40.4924L22.51 39.6699L11.2689 30.0034L22.51 20.3298L21.5499 19.5073L9.34867 29.9963L21.5499 40.4924Z" fill="#FFFBFA" fill-opacity="0.16"/>
<path d="M28.166 47.5296L27.2059 46.7001L26.3088 45.9268H19.1395L20.7303 47.5296H28.166Z" fill="#FFFBFA" fill-opacity="0.16"/>
<path d="M35.6367 47.5296L34.6766 46.7001L33.7796 45.9268H26.6102L28.201 47.5296H35.6367Z" fill="#FFFBFA" fill-opacity="0.16"/>
<path d="M35.6367 12.4702L34.6766 13.2998L33.7796 14.0731H26.6102L28.201 12.4702H35.6367Z" fill="#FFFBFA" fill-opacity="0.16"/>
<path d="M26.9112 19.5425L28.0325 20.4986L29.1468 19.5425L37.073 12.7232L38.1943 11.7671H35.9587L26.9112 19.5425Z" fill="#FFFBFA" fill-opacity="0.16"/>
<path d="M26.9112 40.4576L28.0325 39.5015L29.1468 40.4576L37.073 47.2769L38.1943 48.233H35.9587L26.9112 40.4576Z" fill="#FFFBFA" fill-opacity="0.16"/>
<path d="M20.3796 12.4702H21.3537L21.4238 12.5616L1.14216 30.0035L21.4238 47.4384L21.3537 47.5298H20.3796L-0.000171661 30.0035L20.3796 12.4702Z" fill="#FFFBFA" fill-opacity="0.16"/>
<path d="M21.5151 43.5014L22.9658 42.25L24.4235 43.5014L34.7396 52.3735L36.1973 53.6249H33.2889L21.5151 43.5014Z" fill="#FFFBFA" fill-opacity="0.16"/>
<path d="M33.2888 53.6249L34.7395 52.3736L36.0991 51.2065H42V53.6249H33.2888Z" fill="#FFFBFA" fill-opacity="0.16"/>
<path d="M21.5151 16.4985L22.9658 17.7499L24.4235 16.4985L34.7396 7.62638L36.1973 6.375H33.2889L21.5151 16.4985Z" fill="#FFFBFA" fill-opacity="0.16"/>
<path d="M33.2888 6.375L34.7395 7.62638L36.0991 8.79339H42V6.375H33.2888Z" fill="#FFFBFA" fill-opacity="0.16"/>
</g>
<path d="M164.784 48V20.544C164.784 19.232 165.104 18.048 165.744 16.992C166.384 15.904 167.248 15.04 168.336 14.4C169.424 13.76 170.608 13.44 171.888 13.44H192.192C193.504 13.44 194.688 13.76 195.744 14.4C196.832 15.04 197.696 15.904 198.336 16.992C199.008 18.048 199.344 19.232 199.344 20.544V48H191.808V36.864H172.224V48H164.784ZM172.224 29.376H191.808V20.928H172.224V29.376ZM206.877 48V13.44H232.989C234.269 13.44 235.437 13.76 236.493 14.4C237.581 15.04 238.445 15.904 239.085 16.992C239.757 18.048 240.093 19.232 240.093 20.544V27.024C240.093 27.44 240.061 27.84 239.997 28.224C239.965 28.576 239.885 28.912 239.757 29.232C240.237 29.84 240.637 30.544 240.957 31.344C241.277 32.144 241.437 32.944 241.437 33.744V40.896C241.437 42.176 241.101 43.36 240.429 44.448C239.789 45.536 238.925 46.4 237.837 47.04C236.781 47.68 235.597 48 234.285 48H206.877ZM214.317 40.512H233.901V34.176H214.317V40.512ZM214.317 26.688H232.557V20.928H214.317V26.688ZM255.598 48C254.318 48 253.134 47.68 252.046 47.04C250.958 46.4 250.094 45.536 249.454 44.448C248.814 43.36 248.494 42.176 248.494 40.896V20.544C248.494 19.232 248.814 18.048 249.454 16.992C250.094 15.904 250.958 15.04 252.046 14.4C253.134 13.76 254.318 13.44 255.598 13.44H275.95C277.23 13.44 278.398 13.76 279.454 14.4C280.542 15.04 281.406 15.904 282.046 16.992C282.718 18.048 283.054 19.232 283.054 20.544V40.896C283.054 42.176 282.718 43.36 282.046 44.448C281.406 45.536 280.542 46.4 279.454 47.04C278.398 47.68 277.23 48 275.95 48H255.598ZM255.934 40.512H275.518V20.928H255.934V40.512ZM297.269 48C295.989 48 294.805 47.68 293.717 47.04C292.629 46.4 291.765 45.536 291.125 44.448C290.485 43.36 290.165 42.176 290.165 40.896V13.44H297.605V40.512H317.189V13.44H324.725V40.896C324.725 42.176 324.389 43.36 323.717 44.448C323.077 45.536 322.213 46.4 321.125 47.04C320.069 47.68 318.901 48 317.621 48H297.269ZM343.738 48V20.928H330.202V13.44H364.762V20.928H351.226V48H343.738ZM394.669 48C393.389 48 392.205 47.68 391.117 47.04C390.029 46.4 389.165 45.536 388.525 44.448C387.885 43.36 387.565 42.176 387.565 40.896V13.44H395.005V40.512H414.589V13.44H422.125V40.896C422.125 42.176 421.789 43.36 421.117 44.448C420.477 45.536 419.613 46.4 418.525 47.04C417.469 47.68 416.301 48 415.021 48H394.669ZM436.339 48C435.059 48 433.875 47.68 432.787 47.04C431.699 46.4 430.835 45.536 430.195 44.448C429.555 43.36 429.235 42.176 429.235 40.896V37.68H436.675V40.512H456.259V34.464H436.339C435.059 34.464 433.875 34.144 432.787 33.504C431.699 32.864 430.835 32.016 430.195 30.96C429.555 29.872 429.235 28.672 429.235 27.36V20.544C429.235 19.232 429.555 18.048 430.195 16.992C430.835 15.904 431.699 15.04 432.787 14.4C433.875 13.76 435.059 13.44 436.339 13.44H456.691C457.971 13.44 459.139 13.76 460.195 14.4C461.283 15.04 462.147 15.904 462.787 16.992C463.459 18.048 463.795 19.232 463.795 20.544V23.76H456.259V20.928H436.675V26.976H456.691C457.971 26.976 459.139 27.296 460.195 27.936C461.283 28.576 462.147 29.44 462.787 30.528C463.459 31.584 463.795 32.768 463.795 34.08V40.896C463.795 42.176 463.459 43.36 462.787 44.448C462.147 45.536 461.283 46.4 460.195 47.04C459.139 47.68 457.971 48 456.691 48H436.339Z" fill="#FFFBFA"/>
<path d="M609.602 34.61L604.318 30.0035L609.602 25.3899L607.688 23.7188L600.498 30.0035L607.688 36.2812L609.602 34.61Z" fill="#FFFBFA" fill-opacity="0.16"/>
<path d="M600.834 12.1919L601.794 13.0346L602.691 13.8202H609.861L608.27 12.1919H600.834Z" fill="#FFFBFA" fill-opacity="0.16"/>
<path d="M611.164 39.3452L613.708 37.117L616.077 35.0459H618.334L624.116 29.9966L618.334 24.9474H616.084L613.715 22.8762L611.171 20.648H613.428L609.118 16.8843L605.348 20.1695L616.589 29.9966L605.348 39.8237L609.118 43.1089L613.428 39.3452H611.164ZM607.45 40.6593L606.49 39.8237L617.731 30.0038L606.49 20.1766L607.45 19.3411L619.651 29.9966L607.45 40.6593Z" fill="#FFFBFA" fill-opacity="0.16"/>
<path d="M600.834 47.808L601.794 46.9653L602.691 46.1797H609.861L608.27 47.808H600.834Z" fill="#FFFBFA" fill-opacity="0.16"/>
<path d="M593.363 47.808L594.323 46.9653L595.22 46.1797H602.39L600.799 47.808H593.363Z" fill="#FFFBFA" fill-opacity="0.16"/>
<path d="M593.363 12.1919L594.323 13.0346L595.22 13.8202H602.39L600.799 12.1919H593.363Z" fill="#FFFBFA" fill-opacity="0.16"/>
<path d="M602.089 19.3764L600.968 20.3476L599.853 19.3764L591.927 12.4488L590.806 11.4775H593.041L602.089 19.3764Z" fill="#FFFBFA" fill-opacity="0.16"/>
<path d="M602.089 40.6236L600.968 39.6523L599.853 40.6236L591.927 47.5512L590.806 48.5225H593.041L602.089 40.6236Z" fill="#FFFBFA" fill-opacity="0.16"/>
<path d="M608.62 12.1919H607.646L607.576 12.2847L627.858 30.0035L607.576 47.7152L607.646 47.808H608.62L629 30.0035L608.62 12.1919Z" fill="#FFFBFA" fill-opacity="0.16"/>
<path d="M607.485 43.7156L606.034 42.4443L604.576 43.7156L594.26 52.7285L592.803 53.9998H595.711L607.485 43.7156Z" fill="#FFFBFA" fill-opacity="0.16"/>
<path d="M595.711 53.9997L594.26 52.7285L592.901 51.543H587V53.9997H595.711Z" fill="#FFFBFA" fill-opacity="0.16"/>
<path d="M607.485 16.2842L606.034 17.5554L604.576 16.2842L594.26 7.27124L592.803 6H595.711L607.485 16.2842Z" fill="#FFFBFA" fill-opacity="0.16"/>
<path d="M595.711 6L594.26 7.27124L592.901 8.45678H587V6H595.711Z" fill="#FFFBFA" fill-opacity="0.16"/>
<defs>
<clipPath id="clip0_1_10676">
<rect width="42" height="47.25" fill="white" transform="matrix(-1 0 0 1 42 6.375)"/>
</clipPath>
</defs>
</svg>
