<svg width="32" height="32" viewBox="0 0 32 32" fill="none" xmlns="http://www.w3.org/2000/svg">
<path d="M24.6673 5.33301H11.334C11.2463 5.33303 11.1595 5.35035 11.0785 5.38398C10.9975 5.41761 10.9239 5.4669 10.862 5.52901L5.52865 10.8623C5.40403 10.9873 5.33402 11.1565 5.33398 11.333V24.6663C5.33398 25.5504 5.68517 26.3982 6.3103 27.0234C6.93542 27.6485 7.78326 27.9997 8.66732 27.9997H24.6673C25.5514 27.9997 26.3992 27.6485 27.0243 27.0234C27.6495 26.3982 28.0007 25.5504 28.0007 24.6663V8.66634C28.0007 7.78229 27.6495 6.93444 27.0243 6.30932C26.3992 5.6842 25.5514 5.33301 24.6673 5.33301ZM10.6673 7.60901V8.66634C10.6673 9.19677 10.4566 9.70548 10.0815 10.0806C9.70646 10.4556 9.19775 10.6663 8.66732 10.6663H7.60998L10.6673 7.60901ZM26.6673 24.6663C26.6673 25.1968 26.4566 25.7055 26.0815 26.0806C25.7065 26.4556 25.1978 26.6663 24.6673 26.6663H8.66732C8.13688 26.6663 7.62818 26.4556 7.2531 26.0806C6.87803 25.7055 6.66732 25.1968 6.66732 24.6663V11.9997H8.66732C9.55137 11.9997 10.3992 11.6485 11.0243 11.0234C11.6495 10.3982 12.0007 9.5504 12.0007 8.66634V6.66634H24.6673C25.1978 6.66634 25.7065 6.87705 26.0815 7.25213C26.4566 7.6272 26.6673 8.13591 26.6673 8.66634V24.6663ZM23.306 11.6943C23.9162 12.3064 24.2588 13.1354 24.2588 13.9997C24.2588 14.8639 23.9162 15.6929 23.306 16.305L17.1393 22.4717C16.3069 23.3041 15.1779 23.7718 14.0007 23.7718C12.8234 23.7718 11.6944 23.3041 10.862 22.4717C10.0296 21.6392 9.56191 20.5102 9.56191 19.333C9.56191 18.1558 10.0296 17.0268 10.862 16.1943L14.862 12.1943C14.9872 12.0692 15.1569 11.9988 15.334 11.9988C15.511 11.9988 15.6808 12.0692 15.806 12.1943C15.9312 12.3195 16.0015 12.4893 16.0015 12.6663C16.0015 12.8434 15.9312 13.0132 15.806 13.1383L11.806 17.1383C11.2366 17.723 10.9204 18.5084 10.9258 19.3245C10.9312 20.1406 11.2578 20.9217 11.8349 21.4988C12.412 22.0759 13.1931 22.4024 14.0092 22.4079C14.8253 22.4133 15.6106 22.097 16.1953 21.5277L22.362 15.361C22.5409 15.1823 22.6828 14.9701 22.7797 14.7365C22.8765 14.5029 22.9264 14.2525 22.9264 13.9997C22.9264 13.7468 22.8765 13.4964 22.7797 13.2628C22.6828 13.0292 22.5409 12.817 22.362 12.6383C21.9953 12.288 21.5077 12.0926 21.0007 12.0926C20.4936 12.0926 20.006 12.288 19.6393 12.6383L14.4727 17.805C14.3326 17.945 14.2539 18.135 14.2539 18.333C14.2539 18.531 14.3326 18.721 14.4727 18.861C14.6127 19.001 14.8026 19.0797 15.0007 19.0797C15.1987 19.0797 15.3886 19.001 15.5287 18.861L18.534 15.8663C18.6592 15.7412 18.8289 15.6708 19.006 15.6708C19.183 15.6708 19.3528 15.7412 19.478 15.8663C19.6032 15.9915 19.6735 16.1613 19.6735 16.3383C19.6735 16.5154 19.6032 16.6852 19.478 16.8103L16.478 19.8103C16.0812 20.1886 15.5541 20.3995 15.006 20.3995C14.4578 20.3995 13.9307 20.1886 13.534 19.8103C13.1438 19.4198 12.9247 18.8904 12.9247 18.3383C12.9247 17.7863 13.1438 17.2569 13.534 16.8663L18.7007 11.6997C19.3118 11.0904 20.1393 10.7479 21.0022 10.7469C21.8652 10.7459 22.6934 11.0865 23.306 11.6943Z" fill="#FFFBFA"/>
</svg>
