<svg width="1920" height="2160" viewBox="0 0 1920 2160" fill="none" xmlns="http://www.w3.org/2000/svg">
<g opacity="0.02">
<path d="M-751 1857.12L9.58002 1626.51L9.21002 1625.28L-751 1855.77V1857.12Z" fill="#FFFBFA"/>
<path d="M-751 1873.8L37.3 1626.51L36.92 1625.28L-751 1872.45V1873.8Z" fill="#FFFBFA"/>
<path d="M-751 1891.68L65.03 1626.51L64.63 1625.28L-751 1890.34V1891.68Z" fill="#FFFBFA"/>
<path d="M-751 1910.9L92.75 1626.51L92.34 1625.28L-751 1909.54V1910.9Z" fill="#FFFBFA"/>
<path d="M-751 1931.6L120.47 1626.5L120.04 1625.29L-751 1930.23V1931.6Z" fill="#FFFBFA"/>
<path d="M-751 1953.96L148.19 1626.5L147.75 1625.29L-751 1952.59V1953.96Z" fill="#FFFBFA"/>
<path d="M-751 1978.2L175.91 1626.5L175.46 1625.29L-751 1976.82V1978.2Z" fill="#FFFBFA"/>
<path d="M-751 2004.55L203.64 1626.5L203.17 1625.3L-751 2003.17V2004.55Z" fill="#FFFBFA"/>
<path d="M-751 2033.32L231.36 1626.49L230.87 1625.3L-751 2031.93V2033.32Z" fill="#FFFBFA"/>
<path d="M-751 2064.85L259.09 1626.49L258.57 1625.3L-751 2063.44V2064.85Z" fill="#FFFBFA"/>
<path d="M-751 2099.55L286.81 1626.48L286.28 1625.31L-751 2098.13V2099.55Z" fill="#FFFBFA"/>
<path d="M-751 2137.93L314.54 1626.48L313.98 1625.31L-751 2136.5V2137.93Z" fill="#FFFBFA"/>
<path d="M-710.339 2159.99L342.271 1626.47L341.69 1625.32L-713.189 2159.99H-710.339Z" fill="#FFFBFA"/>
<path d="M-623.7 2159.99L370 1626.46L369.39 1625.33L-626.43 2159.99H-623.7Z" fill="#FFFBFA"/>
<path d="M-537.07 2159.99L397.73 1626.46L397.09 1625.33L-539.67 2159.99H-537.07Z" fill="#FFFBFA"/>
<path d="M-450.43 2159.99L425.46 1626.45L424.79 1625.34L-452.91 2159.99H-450.43Z" fill="#FFFBFA"/>
<path d="M-363.79 2159.99L453.19 1626.44L452.49 1625.35L-366.15 2159.99H-363.79Z" fill="#FFFBFA"/>
<path d="M-277.151 2159.99L480.929 1626.42L480.179 1625.37L-279.391 2159.99H-277.151Z" fill="#FFFBFA"/>
<path d="M-190.511 2159.99L508.659 1626.41L507.879 1625.38L-192.641 2159.99H-190.511Z" fill="#FFFBFA"/>
<path d="M-103.871 2159.99L536.399 1626.39L535.569 1625.4L-105.891 2159.99H-103.871Z" fill="#FFFBFA"/>
<path d="M-17.2308 2159.99L564.129 1626.37L563.259 1625.42L-19.1309 2159.99H-17.2308Z" fill="#FFFBFA"/>
<path d="M69.4194 2159.99L591.869 1626.35L590.949 1625.44L67.6094 2159.99H69.4194Z" fill="#FFFBFA"/>
<path d="M156.069 2159.99L619.619 1626.32L618.639 1625.47L154.359 2159.99H156.069Z" fill="#FFFBFA"/>
<path d="M242.72 2159.99L647.36 1626.29L646.33 1625.51L241.1 2159.99H242.72Z" fill="#FFFBFA"/>
<path d="M329.38 2159.99L675.1 1626.25L674.02 1625.54L327.85 2159.99H329.38Z" fill="#FFFBFA"/>
<path d="M416.04 2159.99L702.84 1626.2L701.7 1625.59L414.58 2159.99H416.04Z" fill="#FFFBFA"/>
<path d="M502.71 2159.99L730.58 1626.15L729.401 1625.64L501.311 2159.99H502.71Z" fill="#FFFBFA"/>
<path d="M589.379 2159.99L758.319 1626.09L757.089 1625.7L588.029 2159.99H589.379Z" fill="#FFFBFA"/>
<path d="M676.06 2159.99L786.05 1626.03L784.79 1625.77L674.75 2159.99H676.06Z" fill="#FFFBFA"/>
<path d="M762.751 2159.99L813.781 1625.96L812.491 1625.83L761.461 2159.99H762.751Z" fill="#FFFBFA"/>
<path d="M849.449 2159.99L841.489 1625.89L840.199 1625.9L848.149 2159.99H849.449Z" fill="#FFFBFA"/>
<path d="M936.15 2159.99L869.2 1625.81L867.92 1625.98L934.85 2159.99H936.15Z" fill="#FFFBFA"/>
<path d="M1022.86 2159.99L896.91 1625.75L895.65 1626.04L1021.53 2159.99H1022.86Z" fill="#FFFBFA"/>
<path d="M1109.58 2159.99L924.601 1625.68L923.381 1626.11L1108.21 2159.99H1109.58Z" fill="#FFFBFA"/>
<path d="M1196.3 2159.99L952.299 1625.63L951.119 1626.16L1194.88 2159.99H1196.3Z" fill="#FFFBFA"/>
<path d="M1283.03 2159.99L979.979 1625.58L978.859 1626.21L1281.55 2159.99H1283.03Z" fill="#FFFBFA"/>
<path d="M1369.77 2159.99L1007.67 1625.53L1006.61 1626.26L1368.21 2159.99H1369.77Z" fill="#FFFBFA"/>
<path d="M1456.51 2159.99L1035.36 1625.5L1034.35 1626.29L1454.87 2159.99H1456.51Z" fill="#FFFBFA"/>
<path d="M1543.25 2159.99L1063.05 1625.46L1062.09 1626.33L1541.52 2159.99H1543.25Z" fill="#FFFBFA"/>
<path d="M1630 2159.99L1090.74 1625.44L1089.83 1626.35L1628.16 2159.99H1630Z" fill="#FFFBFA"/>
<path d="M1090.29 1625.25H9.40039V1626.54H1090.29V1625.25Z" fill="#FFFBFA"/>
<path d="M1099.28 1634.14H-19.2109V1635.43H1099.28V1634.14Z" fill="#FFFBFA"/>
<path d="M1108.68 1643.41H-49.8691V1644.7H1108.68V1643.41Z" fill="#FFFBFA"/>
<path d="M1118.43 1653.07H-82.9395V1654.36H1118.43V1653.07Z" fill="#FFFBFA"/>
<path d="M1128.63 1663.13H-119.1V1664.42H1128.63V1663.13Z" fill="#FFFBFA"/>
<path d="M1139.26 1673.63H-158.551V1674.92H1139.26V1673.63Z" fill="#FFFBFA"/>
<path d="M1150.4 1684.58H-201.68V1685.88H1150.4V1684.58Z" fill="#FFFBFA"/>
<path d="M1161.94 1696.04H-249.15V1697.33H1161.94V1696.04Z" fill="#FFFBFA"/>
<path d="M1174.06 1708.03H-301.42V1709.32H1174.06V1708.03Z" fill="#FFFBFA"/>
<path d="M1200.12 1733.73H-345.91V1735.02H1200.12V1733.73Z" fill="#FFFBFA"/>
<path d="M1186.8 1720.57H-359.23V1721.86H1186.8V1720.57Z" fill="#FFFBFA"/>
<path d="M1214.1 1747.54H-409.57V1748.83H1214.1V1747.54Z" fill="#FFFBFA"/>
<path d="M1244.24 1777.32H-465.27V1778.61H1244.24V1777.32Z" fill="#FFFBFA"/>
<path d="M1228.79 1762.04H-480.721V1763.33H1228.79V1762.04Z" fill="#FFFBFA"/>
<path d="M1260.53 1793.36H-544.41V1794.65H1260.53V1793.36Z" fill="#FFFBFA"/>
<path d="M1295.88 1828.32H-615.779V1829.61H1295.88V1828.32Z" fill="#FFFBFA"/>
<path d="M1277.72 1810.38H-633.939V1811.67H1277.72V1810.38Z" fill="#FFFBFA"/>
<path d="M1315.09 1847.3H-716.689V1848.59H1315.09V1847.3Z" fill="#FFFBFA"/>
<path d="M1357.09 1888.79H-751V1890.08H1357.09V1888.79Z" fill="#FFFBFA"/>
<path d="M1335.46 1867.41H-751V1868.7H1335.46V1867.41Z" fill="#FFFBFA"/>
<path d="M1380.1 1911.52H-751V1912.81H1380.1V1911.52Z" fill="#FFFBFA"/>
<path d="M1430.83 1961.63H-751V1962.92H1430.83V1961.63Z" fill="#FFFBFA"/>
<path d="M1404.63 1935.75H-751V1937.04H1404.63V1935.75Z" fill="#FFFBFA"/>
<path d="M1488.99 2019.08H-751V2020.38H1488.99V2019.08Z" fill="#FFFBFA"/>
<path d="M1458.89 1989.34H-751V1990.63H1458.89V1989.34Z" fill="#FFFBFA"/>
<path d="M1556.35 2085.61H-751V2086.9H1556.35V2085.61Z" fill="#FFFBFA"/>
<path d="M1521.39 2051.08H-751V2052.37H1521.39V2051.08Z" fill="#FFFBFA"/>
<path d="M1594.18 2122.98H-751V2124.27H1594.18V2122.98Z" fill="#FFFBFA"/>
<path d="M9.62006 813.984H8.33008V1625.9H9.62006V813.984Z" fill="#FFFBFA"/>
<path d="M37.3505 813.984H36.0605V1625.9H37.3505V813.984Z" fill="#FFFBFA"/>
<path d="M65.0693 813.984H63.7793V1625.9H65.0693V813.984Z" fill="#FFFBFA"/>
<path d="M92.7997 813.984H91.5098V1625.9H92.7997V813.984Z" fill="#FFFBFA"/>
<path d="M120.53 813.984H119.24V1625.9H120.53V813.984Z" fill="#FFFBFA"/>
<path d="M148.251 813.984H146.961V1625.9H148.251V813.984Z" fill="#FFFBFA"/>
<path d="M175.979 813.984H174.689V1625.9H175.979V813.984Z" fill="#FFFBFA"/>
<path d="M203.7 813.984H202.41V1625.9H203.7V813.984Z" fill="#FFFBFA"/>
<path d="M231.431 813.984H230.141V1625.9H231.431V813.984Z" fill="#FFFBFA"/>
<path d="M259.149 813.984H257.859V1625.9H259.149V813.984Z" fill="#FFFBFA"/>
<path d="M286.88 813.984H285.59V1625.9H286.88V813.984Z" fill="#FFFBFA"/>
<path d="M314.6 813.984H313.311V1625.9H314.6V813.984Z" fill="#FFFBFA"/>
<path d="M342.331 813.984H341.041V1625.9H342.331V813.984Z" fill="#FFFBFA"/>
<path d="M370.06 813.984H368.77V1625.9H370.06V813.984Z" fill="#FFFBFA"/>
<path d="M397.78 813.984H396.49V1625.9H397.78V813.984Z" fill="#FFFBFA"/>
<path d="M425.511 813.984H424.221V1625.9H425.511V813.984Z" fill="#FFFBFA"/>
<path d="M453.239 813.984H451.949V1625.9H453.239V813.984Z" fill="#FFFBFA"/>
<path d="M480.96 813.984H479.67V1625.9H480.96V813.984Z" fill="#FFFBFA"/>
<path d="M508.69 813.984H507.4V1625.9H508.69V813.984Z" fill="#FFFBFA"/>
<path d="M536.409 813.984H535.119V1625.9H536.409V813.984Z" fill="#FFFBFA"/>
<path d="M564.14 813.984H562.85V1625.9H564.14V813.984Z" fill="#FFFBFA"/>
<path d="M591.86 813.984H590.57V1625.9H591.86V813.984Z" fill="#FFFBFA"/>
<path d="M619.591 813.984H618.301V1625.9H619.591V813.984Z" fill="#FFFBFA"/>
<path d="M647.31 813.984H646.02V1625.9H647.31V813.984Z" fill="#FFFBFA"/>
<path d="M675.04 813.984H673.75V1625.9H675.04V813.984Z" fill="#FFFBFA"/>
<path d="M702.771 813.984H701.48V1625.9H702.771V813.984Z" fill="#FFFBFA"/>
<path d="M730.489 813.984H729.199V1625.9H730.489V813.984Z" fill="#FFFBFA"/>
<path d="M758.22 813.984H756.93V1625.9H758.22V813.984Z" fill="#FFFBFA"/>
<path d="M785.94 813.984H784.65V1625.9H785.94V813.984Z" fill="#FFFBFA"/>
<path d="M813.671 813.984H812.381V1625.9H813.671V813.984Z" fill="#FFFBFA"/>
<path d="M841.39 813.984H840.1V1625.9H841.39V813.984Z" fill="#FFFBFA"/>
<path d="M869.12 813.984H867.83V1625.9H869.12V813.984Z" fill="#FFFBFA"/>
<path d="M896.85 813.984H895.561V1625.9H896.85V813.984Z" fill="#FFFBFA"/>
<path d="M924.569 813.984H923.279V1625.9H924.569V813.984Z" fill="#FFFBFA"/>
<path d="M952.3 813.984H951.01V1625.9H952.3V813.984Z" fill="#FFFBFA"/>
<path d="M980.021 813.984H978.73V1625.9H980.021V813.984Z" fill="#FFFBFA"/>
<path d="M1007.75 813.984H1006.46V1625.9H1007.75V813.984Z" fill="#FFFBFA"/>
<path d="M1035.48 813.984H1034.19V1625.9H1035.48V813.984Z" fill="#FFFBFA"/>
<path d="M1063.2 813.984H1061.91V1625.9H1063.2V813.984Z" fill="#FFFBFA"/>
<path d="M1090.93 813.984H1089.64V1625.9H1090.93V813.984Z" fill="#FFFBFA"/>
<path d="M1090.28 812.744H8.98047V814.034H1090.28V812.744Z" fill="#FFFBFA"/>
<path d="M1090.28 839.534H8.98047V840.824H1090.28V839.534Z" fill="#FFFBFA"/>
<path d="M1090.28 866.913H8.98047V868.203H1090.28V866.913Z" fill="#FFFBFA"/>
<path d="M1090.28 893.993H8.98047V895.283H1090.28V893.993Z" fill="#FFFBFA"/>
<path d="M1090.28 921.082H8.98047V922.372H1090.28V921.082Z" fill="#FFFBFA"/>
<path d="M1090.28 948.161H8.98047V949.451H1090.28V948.161Z" fill="#FFFBFA"/>
<path d="M1090.28 975.241H8.98047V976.531H1090.28V975.241Z" fill="#FFFBFA"/>
<path d="M1090.28 1002.33H8.98047V1003.62H1090.28V1002.33Z" fill="#FFFBFA"/>
<path d="M1090.28 1029.41H8.98047V1030.7H1090.28V1029.41Z" fill="#FFFBFA"/>
<path d="M1090.24 1056.49H8.92969V1057.78H1090.24V1056.49Z" fill="#FFFBFA"/>
<path d="M1090.28 1083.58H8.98047V1084.87H1090.28V1083.58Z" fill="#FFFBFA"/>
<path d="M1090.28 1110.66H8.98047V1111.95H1090.28V1110.66Z" fill="#FFFBFA"/>
<path d="M1090.28 1137.75H8.98047V1139.04H1090.28V1137.75Z" fill="#FFFBFA"/>
<path d="M1090.28 1164.83H8.98047V1166.12H1090.28V1164.83Z" fill="#FFFBFA"/>
<path d="M1090.28 1191.91H8.98047V1193.2H1090.28V1191.91Z" fill="#FFFBFA"/>
<path d="M1090.28 1219H8.98047V1220.29H1090.28V1219Z" fill="#FFFBFA"/>
<path d="M1090.28 1246.08H8.98047V1247.37H1090.28V1246.08Z" fill="#FFFBFA"/>
<path d="M1090.28 1273.16H8.98047V1274.45H1090.28V1273.16Z" fill="#FFFBFA"/>
<path d="M1090.28 1300.24H8.98047V1301.53H1090.28V1300.24Z" fill="#FFFBFA"/>
<path d="M1090.28 1327.32H8.98047V1328.61H1090.28V1327.32Z" fill="#FFFBFA"/>
<path d="M1090.28 1354.4H8.98047V1355.69H1090.28V1354.4Z" fill="#FFFBFA"/>
<path d="M1090.28 1381.49H8.98047V1382.78H1090.28V1381.49Z" fill="#FFFBFA"/>
<path d="M1090.28 1408.57H8.98047V1409.86H1090.28V1408.57Z" fill="#FFFBFA"/>
<path d="M1090.24 1435.65H8.92969V1436.94H1090.24V1435.65Z" fill="#FFFBFA"/>
<path d="M1090.78 1462.74H9.46875V1464.03H1090.78V1462.74Z" fill="#FFFBFA"/>
<path d="M1090.24 1489.82H8.92969V1491.11H1090.24V1489.82Z" fill="#FFFBFA"/>
<path d="M1090.24 1516.9H8.92969V1518.19H1090.24V1516.9Z" fill="#FFFBFA"/>
<path d="M1090.28 1543.99H8.98047V1545.28H1090.28V1543.99Z" fill="#FFFBFA"/>
<path d="M1090.24 1571.07H8.92969V1572.36H1090.24V1571.07Z" fill="#FFFBFA"/>
<path d="M1090.28 1598.16H8.98047V1599.45H1090.28V1598.16Z" fill="#FFFBFA"/>
<path d="M1090.28 1625.25H8.98047V1626.54H1090.28V1625.25Z" fill="#FFFBFA"/>
<path d="M1908.54 81.0386H1907.36V2159.99H1908.54V81.0386Z" fill="#FFFBFA"/>
<path d="M1842.7 137.826H1841.52V2159.99H1842.7V137.826Z" fill="#FFFBFA"/>
<path d="M1783.35 189.017H1782.17V2159.99H1783.35V189.017Z" fill="#FFFBFA"/>
<path d="M1729.57 235.408H1728.39V2160H1729.57V235.408Z" fill="#FFFBFA"/>
<path d="M1680.61 277.632H1679.43V2159.99H1680.61V277.632Z" fill="#FFFBFA"/>
<path d="M1635.85 316.247H1634.67V2160H1635.85V316.247Z" fill="#FFFBFA"/>
<path d="M1594.77 351.673H1593.59V2123.62H1594.77V351.673Z" fill="#FFFBFA"/>
<path d="M1556.94 384.311H1555.76V2086.26H1556.94V384.311Z" fill="#FFFBFA"/>
<path d="M1521.98 414.459H1520.8V2051.72H1521.98V414.459Z" fill="#FFFBFA"/>
<path d="M1489.59 442.408H1488.41V2019.72H1489.59V442.408Z" fill="#FFFBFA"/>
<path d="M1459.48 468.378H1458.3V1989.99H1459.48V468.378Z" fill="#FFFBFA"/>
<path d="M1431.42 492.568H1430.24V1962.27H1431.42V492.568Z" fill="#FFFBFA"/>
<path d="M1405.22 515.17H1404.04V1936.39H1405.22V515.17Z" fill="#FFFBFA"/>
<path d="M1380.69 536.331H1379.51V1912.16H1380.69V536.331Z" fill="#FFFBFA"/>
<path d="M1357.68 556.184H1356.5V1889.44H1357.68V556.184Z" fill="#FFFBFA"/>
<path d="M1336.05 574.836H1334.87V1868.06H1336.05V574.836Z" fill="#FFFBFA"/>
<path d="M1315.68 592.41H1314.5V1847.94H1315.68V592.41Z" fill="#FFFBFA"/>
<path d="M1296.47 608.983H1295.29V1828.97H1296.47V608.983Z" fill="#FFFBFA"/>
<path d="M1278.31 624.637H1277.13V1811.03H1278.31V624.637Z" fill="#FFFBFA"/>
<path d="M1261.12 639.461H1259.94V1794.05H1261.12V639.461Z" fill="#FFFBFA"/>
<path d="M1244.84 653.506H1243.66V1777.96H1244.84V653.506Z" fill="#FFFBFA"/>
<path d="M1229.38 666.841H1228.2V1762.69H1229.38V666.841Z" fill="#FFFBFA"/>
<path d="M1214.69 679.516H1213.51V1748.18H1214.69V679.516Z" fill="#FFFBFA"/>
<path d="M1200.71 691.571H1199.53V1734.37H1200.71V691.571Z" fill="#FFFBFA"/>
<path d="M1187.39 703.066H1186.21V1721.22H1187.39V703.066Z" fill="#FFFBFA"/>
<path d="M1174.68 714.022H1173.5V1708.67H1174.68V714.022Z" fill="#FFFBFA"/>
<path d="M1162.55 724.488H1161.37V1696.69H1162.55V724.488Z" fill="#FFFBFA"/>
<path d="M1150.96 734.484H1149.78V1685.23H1150.96V734.484Z" fill="#FFFBFA"/>
<path d="M1139.86 744.051H1138.68V1674.27H1139.86V744.051Z" fill="#FFFBFA"/>
<path d="M1129.24 753.217H1128.06V1663.77H1129.24V753.217Z" fill="#FFFBFA"/>
<path d="M1119.05 762.003H1117.87V1653.71H1119.05V762.003Z" fill="#FFFBFA"/>
<path d="M1109.28 770.431H1108.1V1644.05H1109.28V770.431Z" fill="#FFFBFA"/>
<path d="M1099.9 778.527H1098.72V1634.78H1099.9V778.527Z" fill="#FFFBFA"/>
<path d="M1090.88 786.304H1089.7V1625.88H1090.88V786.304Z" fill="#FFFBFA"/>
<path d="M2001 0L1089.9 785.864L1090.67 786.754L2001 1.5494V0Z" fill="#FFFBFA"/>
<path d="M2001 81.4683L1089.92 812.934L1090.65 813.853L2001 82.9777V81.4683Z" fill="#FFFBFA"/>
<path d="M2001 162.927L1089.93 840.003L1090.64 840.943L2001 164.396V162.927Z" fill="#FFFBFA"/>
<path d="M2001 244.395L1089.95 867.073L1090.62 868.042L2001 245.814V244.395Z" fill="#FFFBFA"/>
<path d="M2001 325.854L1089.97 894.143L1090.6 895.142L2001 327.243V325.854Z" fill="#FFFBFA"/>
<path d="M2001 407.312L1090 921.212L1090.57 922.231L2001 408.661V407.312Z" fill="#FFFBFA"/>
<path d="M2001 488.77L1090.02 948.281L1090.55 949.33L2001 490.089V488.77Z" fill="#FFFBFA"/>
<path d="M2001 570.228L1090.05 975.35L1090.52 976.43L2001 571.518V570.228Z" fill="#FFFBFA"/>
<path d="M2001 651.687L1090.07 1002.42L1090.5 1003.52L2001 652.946V651.687Z" fill="#FFFBFA"/>
<path d="M2001 733.135L1090.1 1029.5L1090.47 1030.62L2001 734.374V733.135Z" fill="#FFFBFA"/>
<path d="M2001 814.593L1090.13 1056.57L1090.44 1057.71L2001 815.802V814.593Z" fill="#FFFBFA"/>
<path d="M2001 896.042L1090.17 1083.65L1090.4 1084.8L2001 897.241V896.042Z" fill="#FFFBFA"/>
<path d="M2001 977.49L1090.2 1110.72L1090.37 1111.89L2001 978.679V977.49Z" fill="#FFFBFA"/>
<path d="M2001 1058.94L1090.23 1137.8L1090.34 1138.98L2001 1060.12V1058.94Z" fill="#FFFBFA"/>
<path d="M2001 1140.38L1090.27 1164.89L1090.3 1166.06L2001 1141.56V1140.38Z" fill="#FFFBFA"/>
<path d="M2001 1221.81L1090.3 1191.97L1090.27 1193.15L2001 1222.99V1221.81Z" fill="#FFFBFA"/>
<path d="M2001 1303.26L1090.34 1219.05L1090.23 1220.23L2001 1304.44V1303.26Z" fill="#FFFBFA"/>
<path d="M2001 1384.7L1090.37 1246.14L1090.2 1247.3L2001 1385.89V1384.7Z" fill="#FFFBFA"/>
<path d="M2001 1466.13L1090.41 1273.22L1090.16 1274.37L2001 1467.34V1466.13Z" fill="#FFFBFA"/>
<path d="M2001 1547.57L1090.44 1300.31L1090.13 1301.45L2001 1548.79V1547.57Z" fill="#FFFBFA"/>
<path d="M2001 1629L1090.47 1327.41L1090.1 1328.52L2001 1630.24V1629Z" fill="#FFFBFA"/>
<path d="M2001 1710.43L1090.5 1354.5L1090.07 1355.6L2001 1711.69V1710.43Z" fill="#FFFBFA"/>
<path d="M2001 1791.85L1090.53 1381.6L1090.04 1382.67L2001 1793.15V1791.85Z" fill="#FFFBFA"/>
<path d="M2001 1873.28L1090.55 1408.69L1090.02 1409.74L2001 1874.61V1873.28Z" fill="#FFFBFA"/>
<path d="M2001 1954.71L1090.58 1435.79L1089.99 1436.81L2001 1956.07V1954.71Z" fill="#FFFBFA"/>
<path d="M2001 2036.14L1090.6 1462.89L1089.97 1463.88L2001 2037.53V2036.14Z" fill="#FFFBFA"/>
<path d="M2001 2117.56L1090.62 1489.98L1089.95 1490.95L2001 2118.99V2117.56Z" fill="#FFFBFA"/>
<path d="M1948.95 2159.99L1090.64 1517.08L1089.93 1518.02L1946.99 2159.99H1948.95Z" fill="#FFFBFA"/>
<path d="M1852.12 2159.99L1090.66 1544.18L1089.91 1545.09L1850.25 2159.99H1852.12Z" fill="#FFFBFA"/>
<path d="M1768.6 2159.99L1090.67 1571.27L1089.9 1572.16L1766.8 2159.99H1768.6Z" fill="#FFFBFA"/>
<path d="M1695.82 2159.99L1090.68 1598.37L1089.88 1599.23L1694.09 2159.99H1695.82Z" fill="#FFFBFA"/>
<path d="M1631.83 2159.99L1090.7 1625.47L1089.87 1626.3L1630.16 2159.99H1631.83Z" fill="#FFFBFA"/>
</g>
</svg>
