<svg width="1318" height="60" viewBox="0 0 1318 60" fill="none" xmlns="http://www.w3.org/2000/svg">
<g clip-path="url(#clip0_1_10594)">
<path d="M19.3983 34.538L24.6825 30.0035L19.3983 25.462L21.3116 23.8169L28.502 30.0035L21.3116 36.183L19.3983 34.538Z" fill="#FFFBFA" fill-opacity="0.16"/>
<path d="M28.166 12.4702L27.2059 13.2998L26.3088 14.0731H19.1395L20.7303 12.4702H28.166Z" fill="#FFFBFA" fill-opacity="0.16"/>
<path d="M17.8356 39.1989L15.2916 37.0054L12.9228 34.9667H10.6662L4.88446 29.9963L10.6662 25.026H12.9158L15.2846 22.9872L17.8286 20.7938H15.5719L19.8819 17.0889L23.6523 20.3228L12.4112 29.9963L23.6523 39.6699L19.8819 42.9038L15.5719 39.1989H17.8356ZM21.5499 40.4924L22.51 39.6699L11.2689 30.0034L22.51 20.3298L21.5499 19.5073L9.34867 29.9963L21.5499 40.4924Z" fill="#FFFBFA" fill-opacity="0.16"/>
<path d="M28.166 47.5296L27.2059 46.7001L26.3088 45.9268H19.1395L20.7303 47.5296H28.166Z" fill="#FFFBFA" fill-opacity="0.16"/>
<path d="M35.6367 47.5296L34.6766 46.7001L33.7796 45.9268H26.6102L28.201 47.5296H35.6367Z" fill="#FFFBFA" fill-opacity="0.16"/>
<path d="M35.6367 12.4702L34.6766 13.2998L33.7796 14.0731H26.6102L28.201 12.4702H35.6367Z" fill="#FFFBFA" fill-opacity="0.16"/>
<path d="M26.9112 19.5425L28.0325 20.4986L29.1468 19.5425L37.073 12.7232L38.1943 11.7671H35.9587L26.9112 19.5425Z" fill="#FFFBFA" fill-opacity="0.16"/>
<path d="M26.9112 40.4576L28.0325 39.5015L29.1468 40.4576L37.073 47.2769L38.1943 48.233H35.9587L26.9112 40.4576Z" fill="#FFFBFA" fill-opacity="0.16"/>
<path d="M20.3796 12.4702H21.3537L21.4238 12.5616L1.14216 30.0035L21.4238 47.4384L21.3537 47.5298H20.3796L-0.000171661 30.0035L20.3796 12.4702Z" fill="#FFFBFA" fill-opacity="0.16"/>
<path d="M21.5151 43.5014L22.9658 42.25L24.4235 43.5014L34.7396 52.3735L36.1973 53.6249H33.2889L21.5151 43.5014Z" fill="#FFFBFA" fill-opacity="0.16"/>
<path d="M33.2888 53.6249L34.7395 52.3736L36.0991 51.2065H42V53.6249H33.2888Z" fill="#FFFBFA" fill-opacity="0.16"/>
<path d="M21.5151 16.4985L22.9658 17.7499L24.4235 16.4985L34.7396 7.62638L36.1973 6.375H33.2889L21.5151 16.4985Z" fill="#FFFBFA" fill-opacity="0.16"/>
<path d="M33.2888 6.375L34.7395 7.62638L36.0991 8.79339H42V6.375H33.2888Z" fill="#FFFBFA" fill-opacity="0.16"/>
</g>
<path d="M90 18L113.455 42H126L102.636 18.093L90 18Z" fill="#FFFBFA" fill-opacity="0.08"/>
<path d="M118 18L141.455 42H154L130.636 18.093L118 18Z" fill="#FFFBFA" fill-opacity="0.08"/>
<path d="M146 18L169.455 42H182L158.636 18.093L146 18Z" fill="#FFFBFA" fill-opacity="0.08"/>
<path d="M174 18L197.455 42H210L186.636 18.093L174 18Z" fill="#FFFBFA" fill-opacity="0.08"/>
<path d="M202 18L225.455 42H238L214.636 18.093L202 18Z" fill="#FFFBFA" fill-opacity="0.08"/>
<path d="M230 18L253.455 42H266L242.636 18.093L230 18Z" fill="#FFFBFA" fill-opacity="0.08"/>
<path d="M258 18L281.455 42H294L270.636 18.093L258 18Z" fill="#FFFBFA" fill-opacity="0.08"/>
<path d="M286 18L309.455 42H322L298.636 18.093L286 18Z" fill="#FFFBFA" fill-opacity="0.08"/>
<path d="M314 18L337.455 42H350L326.636 18.093L314 18Z" fill="#FFFBFA" fill-opacity="0.08"/>
<path d="M342 18L365.455 42H378L354.636 18.093L342 18Z" fill="#FFFBFA" fill-opacity="0.08"/>
<path d="M370 18L393.455 42H406L382.636 18.093L370 18Z" fill="#FFFBFA" fill-opacity="0.08"/>
<path d="M463.792 48C462.48 48 461.28 47.68 460.192 47.04C459.136 46.4 458.288 45.552 457.648 44.496C457.008 43.408 456.688 42.208 456.688 40.896V20.544C456.688 19.232 457.008 18.048 457.648 16.992C458.288 15.904 459.136 15.04 460.192 14.4C461.28 13.76 462.48 13.44 463.792 13.44H491.152V20.928H465.712C465.2 20.928 464.8 21.056 464.512 21.312C464.256 21.568 464.128 21.968 464.128 22.512V38.928C464.128 39.44 464.256 39.84 464.512 40.128C464.8 40.384 465.2 40.512 465.712 40.512H491.152V48H463.792ZM498.125 48V13.44H505.565V26.976H525.965V13.44H533.405V48H525.965V34.464H505.565V48H498.125ZM540.921 48V20.544C540.921 19.232 541.241 18.048 541.881 16.992C542.521 15.904 543.385 15.04 544.473 14.4C545.561 13.76 546.745 13.44 548.025 13.44H568.329C569.641 13.44 570.825 13.76 571.881 14.4C572.969 15.04 573.833 15.904 574.473 16.992C575.145 18.048 575.481 19.232 575.481 20.544V48H567.945V36.864H548.361V48H540.921ZM548.361 29.376H567.945V20.928H548.361V29.376ZM609.702 48L599.67 36.048H609.414L617.382 45.456V48H609.702ZM582.87 48V13.488H610.278C611.59 13.488 612.774 13.808 613.83 14.448C614.918 15.088 615.782 15.952 616.422 17.04C617.094 18.128 617.43 19.312 617.43 20.592V29.52C617.43 30.8 617.094 31.984 616.422 33.072C615.782 34.16 614.918 35.024 613.83 35.664C612.774 36.304 611.59 36.624 610.278 36.624L590.31 36.672V48H582.87ZM590.31 29.136H609.894V20.928H590.31V29.136ZM624.495 48V20.544C624.495 19.232 624.815 18.048 625.455 16.992C626.095 15.904 626.959 15.04 628.047 14.4C629.135 13.76 630.319 13.44 631.599 13.44H651.903C653.215 13.44 654.399 13.76 655.455 14.4C656.543 15.04 657.407 15.904 658.047 16.992C658.719 18.048 659.055 19.232 659.055 20.544V48H651.519V36.864H631.935V48H624.495ZM631.935 29.376H651.519V20.928H631.935V29.376ZM673.548 48C672.236 48 671.036 47.68 669.948 47.04C668.892 46.4 668.044 45.552 667.404 44.496C666.764 43.408 666.444 42.208 666.444 40.896V20.544C666.444 19.232 666.764 18.048 667.404 16.992C668.044 15.904 668.892 15.04 669.948 14.4C671.036 13.76 672.236 13.44 673.548 13.44H700.908V20.928H675.468C674.956 20.928 674.556 21.056 674.268 21.312C674.012 21.568 673.884 21.968 673.884 22.512V38.928C673.884 39.44 674.012 39.84 674.268 40.128C674.556 40.384 674.956 40.512 675.468 40.512H700.908V48H673.548ZM719.641 48V20.928H706.105V13.44H740.665V20.928H727.129V48H719.641ZM746.271 48V13.44H778.191V20.928H753.807V26.976H773.439V34.464H753.807V40.512H778.191V48H746.271ZM811.677 48L801.645 36.048H811.389L819.357 45.456V48H811.677ZM784.845 48V13.488H812.253C813.565 13.488 814.749 13.808 815.805 14.448C816.893 15.088 817.757 15.952 818.397 17.04C819.069 18.128 819.405 19.312 819.405 20.592V29.52C819.405 30.8 819.069 31.984 818.397 33.072C817.757 34.16 816.893 35.024 815.805 35.664C814.749 36.304 813.565 36.624 812.253 36.624L792.285 36.672V48H784.845ZM792.285 29.136H811.869V20.928H792.285V29.136ZM833.382 48C832.102 48 830.918 47.68 829.83 47.04C828.742 46.4 827.878 45.536 827.238 44.448C826.598 43.36 826.278 42.176 826.278 40.896V37.68H833.718V40.512H853.302V34.464H833.382C832.102 34.464 830.918 34.144 829.83 33.504C828.742 32.864 827.878 32.016 827.238 30.96C826.598 29.872 826.278 28.672 826.278 27.36V20.544C826.278 19.232 826.598 18.048 827.238 16.992C827.878 15.904 828.742 15.04 829.83 14.4C830.918 13.76 832.102 13.44 833.382 13.44H853.734C855.014 13.44 856.182 13.76 857.238 14.4C858.326 15.04 859.19 15.904 859.83 16.992C860.502 18.048 860.838 19.232 860.838 20.544V23.76H853.302V20.928H833.718V26.976H853.734C855.014 26.976 856.182 27.296 857.238 27.936C858.326 28.576 859.19 29.44 859.83 30.528C860.502 31.584 860.838 32.768 860.838 34.08V40.896C860.838 42.176 860.502 43.36 859.83 44.448C859.19 45.536 858.326 46.4 857.238 47.04C856.182 47.68 855.014 48 853.734 48H833.382Z" fill="#FFFBFA"/>
<path d="M948 18L924.545 42H912L935.364 18.093L948 18Z" fill="#FFFBFA" fill-opacity="0.08"/>
<path d="M976 18L952.545 42H940L963.364 18.093L976 18Z" fill="#FFFBFA" fill-opacity="0.08"/>
<path d="M1004 18L980.545 42H968L991.364 18.093L1004 18Z" fill="#FFFBFA" fill-opacity="0.08"/>
<path d="M1032 18L1008.55 42H996L1019.36 18.093L1032 18Z" fill="#FFFBFA" fill-opacity="0.08"/>
<path d="M1060 18L1036.55 42H1024L1047.36 18.093L1060 18Z" fill="#FFFBFA" fill-opacity="0.08"/>
<path d="M1088 18L1064.55 42H1052L1075.36 18.093L1088 18Z" fill="#FFFBFA" fill-opacity="0.08"/>
<path d="M1116 18L1092.55 42H1080L1103.36 18.093L1116 18Z" fill="#FFFBFA" fill-opacity="0.08"/>
<path d="M1144 18L1120.55 42H1108L1131.36 18.093L1144 18Z" fill="#FFFBFA" fill-opacity="0.08"/>
<path d="M1172 18L1148.55 42H1136L1159.36 18.093L1172 18Z" fill="#FFFBFA" fill-opacity="0.08"/>
<path d="M1200 18L1176.55 42H1164L1187.36 18.093L1200 18Z" fill="#FFFBFA" fill-opacity="0.08"/>
<path d="M1228 18L1204.55 42H1192L1215.36 18.093L1228 18Z" fill="#FFFBFA" fill-opacity="0.08"/>
<path d="M1298.6 34.61L1293.32 30.0035L1298.6 25.3899L1296.69 23.7188L1289.5 30.0035L1296.69 36.2812L1298.6 34.61Z" fill="#FFFBFA" fill-opacity="0.16"/>
<path d="M1289.83 12.1919L1290.79 13.0346L1291.69 13.8202H1298.86L1297.27 12.1919H1289.83Z" fill="#FFFBFA" fill-opacity="0.16"/>
<path d="M1300.16 39.3452L1302.71 37.117L1305.08 35.0459H1307.33L1313.12 29.9966L1307.33 24.9474H1305.08L1302.72 22.8762L1300.17 20.648H1302.43L1298.12 16.8843L1294.35 20.1695L1305.59 29.9966L1294.35 39.8237L1298.12 43.1089L1302.43 39.3452H1300.16ZM1296.45 40.6593L1295.49 39.8237L1306.73 30.0038L1295.49 20.1766L1296.45 19.3411L1308.65 29.9966L1296.45 40.6593Z" fill="#FFFBFA" fill-opacity="0.16"/>
<path d="M1289.83 47.808L1290.79 46.9653L1291.69 46.1797H1298.86L1297.27 47.808H1289.83Z" fill="#FFFBFA" fill-opacity="0.16"/>
<path d="M1282.36 47.808L1283.32 46.9653L1284.22 46.1797H1291.39L1289.8 47.808H1282.36Z" fill="#FFFBFA" fill-opacity="0.16"/>
<path d="M1282.36 12.1919L1283.32 13.0346L1284.22 13.8202H1291.39L1289.8 12.1919H1282.36Z" fill="#FFFBFA" fill-opacity="0.16"/>
<path d="M1291.09 19.3764L1289.97 20.3476L1288.85 19.3764L1280.93 12.4488L1279.81 11.4775H1282.04L1291.09 19.3764Z" fill="#FFFBFA" fill-opacity="0.16"/>
<path d="M1291.09 40.6236L1289.97 39.6523L1288.85 40.6236L1280.93 47.5512L1279.81 48.5225H1282.04L1291.09 40.6236Z" fill="#FFFBFA" fill-opacity="0.16"/>
<path d="M1297.62 12.1919H1296.65L1296.58 12.2847L1316.86 30.0035L1296.58 47.7152L1296.65 47.808H1297.62L1318 30.0035L1297.62 12.1919Z" fill="#FFFBFA" fill-opacity="0.16"/>
<path d="M1296.48 43.7156L1295.03 42.4443L1293.58 43.7156L1283.26 52.7285L1281.8 53.9998H1284.71L1296.48 43.7156Z" fill="#FFFBFA" fill-opacity="0.16"/>
<path d="M1284.71 53.9997L1283.26 52.7285L1281.9 51.543H1276V53.9997H1284.71Z" fill="#FFFBFA" fill-opacity="0.16"/>
<path d="M1296.48 16.2842L1295.03 17.5554L1293.58 16.2842L1283.26 7.27124L1281.8 6H1284.71L1296.48 16.2842Z" fill="#FFFBFA" fill-opacity="0.16"/>
<path d="M1284.71 6L1283.26 7.27124L1281.9 8.45678H1276V6H1284.71Z" fill="#FFFBFA" fill-opacity="0.16"/>
<defs>
<clipPath id="clip0_1_10594">
<rect width="42" height="47.25" fill="white" transform="matrix(-1 0 0 1 42 6.375)"/>
</clipPath>
</defs>
</svg>
