<svg width="1441" height="60" viewBox="0 0 1441 60" fill="none" xmlns="http://www.w3.org/2000/svg">
<g clip-path="url(#clip0_1_10734)">
<path d="M19.3983 34.538L24.6825 30.0035L19.3983 25.462L21.3116 23.8169L28.502 30.0035L21.3116 36.183L19.3983 34.538Z" fill="#FFFBFA" fill-opacity="0.16"/>
<path d="M28.166 12.4702L27.2059 13.2998L26.3088 14.0731H19.1395L20.7303 12.4702H28.166Z" fill="#FFFBFA" fill-opacity="0.16"/>
<path d="M17.8356 39.1989L15.2916 37.0054L12.9228 34.9667H10.6662L4.88446 29.9963L10.6662 25.026H12.9158L15.2846 22.9872L17.8286 20.7938H15.5719L19.8819 17.0889L23.6523 20.3228L12.4112 29.9963L23.6523 39.6699L19.8819 42.9038L15.5719 39.1989H17.8356ZM21.5499 40.4924L22.51 39.6699L11.2689 30.0034L22.51 20.3298L21.5499 19.5073L9.34867 29.9963L21.5499 40.4924Z" fill="#FFFBFA" fill-opacity="0.16"/>
<path d="M28.166 47.5296L27.2059 46.7001L26.3088 45.9268H19.1395L20.7303 47.5296H28.166Z" fill="#FFFBFA" fill-opacity="0.16"/>
<path d="M35.6367 47.5296L34.6766 46.7001L33.7796 45.9268H26.6102L28.201 47.5296H35.6367Z" fill="#FFFBFA" fill-opacity="0.16"/>
<path d="M35.6367 12.4702L34.6766 13.2998L33.7796 14.0731H26.6102L28.201 12.4702H35.6367Z" fill="#FFFBFA" fill-opacity="0.16"/>
<path d="M26.9112 19.5425L28.0325 20.4986L29.1468 19.5425L37.073 12.7232L38.1943 11.7671H35.9587L26.9112 19.5425Z" fill="#FFFBFA" fill-opacity="0.16"/>
<path d="M26.9112 40.4576L28.0325 39.5015L29.1468 40.4576L37.073 47.2769L38.1943 48.233H35.9587L26.9112 40.4576Z" fill="#FFFBFA" fill-opacity="0.16"/>
<path d="M20.3796 12.4702H21.3537L21.4238 12.5616L1.14216 30.0035L21.4238 47.4384L21.3537 47.5298H20.3796L-0.000171661 30.0035L20.3796 12.4702Z" fill="#FFFBFA" fill-opacity="0.16"/>
<path d="M21.5151 43.5014L22.9658 42.25L24.4235 43.5014L34.7396 52.3735L36.1973 53.6249H33.2889L21.5151 43.5014Z" fill="#FFFBFA" fill-opacity="0.16"/>
<path d="M33.2888 53.6249L34.7395 52.3736L36.0991 51.2065H42V53.6249H33.2888Z" fill="#FFFBFA" fill-opacity="0.16"/>
<path d="M21.5151 16.4985L22.9658 17.7499L24.4235 16.4985L34.7396 7.62638L36.1973 6.375H33.2889L21.5151 16.4985Z" fill="#FFFBFA" fill-opacity="0.16"/>
<path d="M33.2888 6.375L34.7395 7.62638L36.0991 8.79339H42V6.375H33.2888Z" fill="#FFFBFA" fill-opacity="0.16"/>
</g>
<path d="M90 18L113.455 42H126L102.636 18.093L90 18Z" fill="#FFFBFA" fill-opacity="0.08"/>
<path d="M118 18L141.455 42H154L130.636 18.093L118 18Z" fill="#FFFBFA" fill-opacity="0.08"/>
<path d="M146 18L169.455 42H182L158.636 18.093L146 18Z" fill="#FFFBFA" fill-opacity="0.08"/>
<path d="M174 18L197.455 42H210L186.636 18.093L174 18Z" fill="#FFFBFA" fill-opacity="0.08"/>
<path d="M202 18L225.455 42H238L214.636 18.093L202 18Z" fill="#FFFBFA" fill-opacity="0.08"/>
<path d="M230 18L253.455 42H266L242.636 18.093L230 18Z" fill="#FFFBFA" fill-opacity="0.08"/>
<path d="M258 18L281.455 42H294L270.636 18.093L258 18Z" fill="#FFFBFA" fill-opacity="0.08"/>
<path d="M286 18L309.455 42H322L298.636 18.093L286 18Z" fill="#FFFBFA" fill-opacity="0.08"/>
<path d="M314 18L337.455 42H350L326.636 18.093L314 18Z" fill="#FFFBFA" fill-opacity="0.08"/>
<path d="M342 18L365.455 42H378L354.636 18.093L342 18Z" fill="#FFFBFA" fill-opacity="0.08"/>
<path d="M370 18L393.455 42H406L382.636 18.093L370 18Z" fill="#FFFBFA" fill-opacity="0.08"/>
<path d="M463.792 48C462.512 48 461.328 47.68 460.24 47.04C459.152 46.4 458.288 45.536 457.648 44.448C457.008 43.36 456.688 42.176 456.688 40.896V20.544C456.688 19.232 457.008 18.048 457.648 16.992C458.288 15.904 459.152 15.04 460.24 14.4C461.328 13.76 462.512 13.44 463.792 13.44H484.096C485.408 13.44 486.592 13.76 487.648 14.4C488.736 15.04 489.6 15.904 490.24 16.992C490.912 18.048 491.248 19.232 491.248 20.544V23.808H483.712V20.928H464.128V40.512H483.712V35.328H476.224V27.84H491.248V40.896C491.248 42.176 490.912 43.36 490.24 44.448C489.6 45.536 488.736 46.4 487.648 47.04C486.592 47.68 485.408 48 484.096 48H463.792ZM498.548 48V20.544C498.548 19.232 498.868 18.048 499.508 16.992C500.148 15.904 501.012 15.04 502.1 14.4C503.188 13.76 504.372 13.44 505.652 13.44H525.956C527.268 13.44 528.452 13.76 529.508 14.4C530.596 15.04 531.46 15.904 532.1 16.992C532.772 18.048 533.108 19.232 533.108 20.544V48H525.572V36.864H505.988V48H498.548ZM505.988 29.376H525.572V20.928H505.988V29.376ZM540.497 48V13.44H548.177L559.889 27.408L571.553 13.44H579.281V48H571.793V24.816L559.889 39.024L547.937 24.864V48H540.497ZM587.044 48V13.44H618.964V20.928H594.58V26.976H614.212V34.464H594.58V40.512H618.964V48H587.044ZM643.007 48V13.44H650.687L662.399 27.408L674.063 13.44H681.791V48H674.303V24.816L662.399 39.024L650.447 24.864V48H643.007ZM689.554 48V13.44H721.474V20.928H697.09V26.976H716.722V34.464H697.09V40.512H721.474V48H689.554ZM735.232 48C733.92 48 732.72 47.68 731.632 47.04C730.576 46.4 729.728 45.552 729.088 44.496C728.448 43.408 728.128 42.208 728.128 40.896V20.544C728.128 19.232 728.448 18.048 729.088 16.992C729.728 15.904 730.576 15.04 731.632 14.4C732.72 13.76 733.92 13.44 735.232 13.44H762.592V20.928H737.152C736.64 20.928 736.24 21.056 735.952 21.312C735.696 21.568 735.568 21.968 735.568 22.512V38.928C735.568 39.44 735.696 39.84 735.952 40.128C736.24 40.384 736.64 40.512 737.152 40.512H762.592V48H735.232ZM769.565 48V13.44H777.005V26.976H797.405V13.44H804.845V48H797.405V34.464H777.005V48H769.565ZM812.361 48V20.544C812.361 19.232 812.681 18.048 813.321 16.992C813.961 15.904 814.825 15.04 815.913 14.4C817.001 13.76 818.185 13.44 819.465 13.44H839.769C841.081 13.44 842.265 13.76 843.321 14.4C844.409 15.04 845.273 15.904 845.913 16.992C846.585 18.048 846.921 19.232 846.921 20.544V48H839.385V36.864H819.801V48H812.361ZM819.801 29.376H839.385V20.928H819.801V29.376ZM854.31 48V13.44H861.99L881.334 36.48V13.44H888.87V48H881.19L861.75 24.864V48H854.31ZM894.967 48V13.44H902.311V48H894.967ZM915.457 48C914.145 48 912.945 47.68 911.857 47.04C910.801 46.4 909.953 45.552 909.313 44.496C908.673 43.408 908.353 42.208 908.353 40.896V20.544C908.353 19.232 908.673 18.048 909.313 16.992C909.953 15.904 910.801 15.04 911.857 14.4C912.945 13.76 914.145 13.44 915.457 13.44H942.817V20.928H917.377C916.865 20.928 916.465 21.056 916.177 21.312C915.921 21.568 915.793 21.968 915.793 22.512V38.928C915.793 39.44 915.921 39.84 916.177 40.128C916.465 40.384 916.865 40.512 917.377 40.512H942.817V48H915.457ZM956.75 48C955.47 48 954.286 47.68 953.198 47.04C952.11 46.4 951.246 45.536 950.606 44.448C949.966 43.36 949.646 42.176 949.646 40.896V37.68H957.086V40.512H976.67V34.464H956.75C955.47 34.464 954.286 34.144 953.198 33.504C952.11 32.864 951.246 32.016 950.606 30.96C949.966 29.872 949.646 28.672 949.646 27.36V20.544C949.646 19.232 949.966 18.048 950.606 16.992C951.246 15.904 952.11 15.04 953.198 14.4C954.286 13.76 955.47 13.44 956.75 13.44H977.102C978.382 13.44 979.55 13.76 980.606 14.4C981.694 15.04 982.558 15.904 983.198 16.992C983.87 18.048 984.206 19.232 984.206 20.544V23.76H976.67V20.928H957.086V26.976H977.102C978.382 26.976 979.55 27.296 980.606 27.936C981.694 28.576 982.558 29.44 983.198 30.528C983.87 31.584 984.206 32.768 984.206 34.08V40.896C984.206 42.176 983.87 43.36 983.198 44.448C982.558 45.536 981.694 46.4 980.606 47.04C979.55 47.68 978.382 48 977.102 48H956.75Z" fill="#FFFBFA"/>
<path d="M1071 18L1047.55 42H1035L1058.36 18.093L1071 18Z" fill="#FFFBFA" fill-opacity="0.08"/>
<path d="M1099 18L1075.55 42H1063L1086.36 18.093L1099 18Z" fill="#FFFBFA" fill-opacity="0.08"/>
<path d="M1127 18L1103.55 42H1091L1114.36 18.093L1127 18Z" fill="#FFFBFA" fill-opacity="0.08"/>
<path d="M1155 18L1131.55 42H1119L1142.36 18.093L1155 18Z" fill="#FFFBFA" fill-opacity="0.08"/>
<path d="M1183 18L1159.55 42H1147L1170.36 18.093L1183 18Z" fill="#FFFBFA" fill-opacity="0.08"/>
<path d="M1211 18L1187.55 42H1175L1198.36 18.093L1211 18Z" fill="#FFFBFA" fill-opacity="0.08"/>
<path d="M1239 18L1215.55 42H1203L1226.36 18.093L1239 18Z" fill="#FFFBFA" fill-opacity="0.08"/>
<path d="M1267 18L1243.55 42H1231L1254.36 18.093L1267 18Z" fill="#FFFBFA" fill-opacity="0.08"/>
<path d="M1295 18L1271.55 42H1259L1282.36 18.093L1295 18Z" fill="#FFFBFA" fill-opacity="0.08"/>
<path d="M1323 18L1299.55 42H1287L1310.36 18.093L1323 18Z" fill="#FFFBFA" fill-opacity="0.08"/>
<path d="M1351 18L1327.55 42H1315L1338.36 18.093L1351 18Z" fill="#FFFBFA" fill-opacity="0.08"/>
<path d="M1421.6 34.61L1416.32 30.0035L1421.6 25.3899L1419.69 23.7188L1412.5 30.0035L1419.69 36.2812L1421.6 34.61Z" fill="#FFFBFA" fill-opacity="0.16"/>
<path d="M1412.83 12.1919L1413.79 13.0346L1414.69 13.8202H1421.86L1420.27 12.1919H1412.83Z" fill="#FFFBFA" fill-opacity="0.16"/>
<path d="M1423.16 39.3452L1425.71 37.117L1428.08 35.0459H1430.33L1436.12 29.9966L1430.33 24.9474H1428.08L1425.72 22.8762L1423.17 20.648H1425.43L1421.12 16.8843L1417.35 20.1695L1428.59 29.9966L1417.35 39.8237L1421.12 43.1089L1425.43 39.3452H1423.16ZM1419.45 40.6593L1418.49 39.8237L1429.73 30.0038L1418.49 20.1766L1419.45 19.3411L1431.65 29.9966L1419.45 40.6593Z" fill="#FFFBFA" fill-opacity="0.16"/>
<path d="M1412.83 47.808L1413.79 46.9653L1414.69 46.1797H1421.86L1420.27 47.808H1412.83Z" fill="#FFFBFA" fill-opacity="0.16"/>
<path d="M1405.36 47.808L1406.32 46.9653L1407.22 46.1797H1414.39L1412.8 47.808H1405.36Z" fill="#FFFBFA" fill-opacity="0.16"/>
<path d="M1405.36 12.1919L1406.32 13.0346L1407.22 13.8202H1414.39L1412.8 12.1919H1405.36Z" fill="#FFFBFA" fill-opacity="0.16"/>
<path d="M1414.09 19.3764L1412.97 20.3476L1411.85 19.3764L1403.93 12.4488L1402.81 11.4775H1405.04L1414.09 19.3764Z" fill="#FFFBFA" fill-opacity="0.16"/>
<path d="M1414.09 40.6236L1412.97 39.6523L1411.85 40.6236L1403.93 47.5512L1402.81 48.5225H1405.04L1414.09 40.6236Z" fill="#FFFBFA" fill-opacity="0.16"/>
<path d="M1420.62 12.1919H1419.65L1419.58 12.2847L1439.86 30.0035L1419.58 47.7152L1419.65 47.808H1420.62L1441 30.0035L1420.62 12.1919Z" fill="#FFFBFA" fill-opacity="0.16"/>
<path d="M1419.48 43.7156L1418.03 42.4443L1416.58 43.7156L1406.26 52.7285L1404.8 53.9998H1407.71L1419.48 43.7156Z" fill="#FFFBFA" fill-opacity="0.16"/>
<path d="M1407.71 53.9997L1406.26 52.7285L1404.9 51.543H1399V53.9997H1407.71Z" fill="#FFFBFA" fill-opacity="0.16"/>
<path d="M1419.48 16.2842L1418.03 17.5554L1416.58 16.2842L1406.26 7.27124L1404.8 6H1407.71L1419.48 16.2842Z" fill="#FFFBFA" fill-opacity="0.16"/>
<path d="M1407.71 6L1406.26 7.27124L1404.9 8.45678H1399V6H1407.71Z" fill="#FFFBFA" fill-opacity="0.16"/>
<defs>
<clipPath id="clip0_1_10734">
<rect width="42" height="47.25" fill="white" transform="matrix(-1 0 0 1 42 6.375)"/>
</clipPath>
</defs>
</svg>
