<svg width="42" height="48" viewBox="0 0 42 48" fill="none" xmlns="http://www.w3.org/2000/svg">
<g clip-path="url(#clip0_430_2419)">
<path d="M19.3983 28.5375L24.6825 24.003L19.3983 19.4615L21.3116 17.8164L28.502 24.003L21.3116 30.1825L19.3983 28.5375Z" fill="#FFFBFA" fill-opacity="0.16"/>
<path d="M28.166 6.46973L27.2059 7.29929L26.3088 8.07261H19.1395L20.7303 6.46973H28.166Z" fill="#FFFBFA" fill-opacity="0.16"/>
<path d="M17.8356 33.1989L15.2916 31.0054L12.9228 28.9667H10.6662L4.88446 23.9963L10.6662 19.026H12.9158L15.2846 16.9872L17.8286 14.7938H15.5719L19.8819 11.0889L23.6523 14.3228L12.4112 23.9963L23.6523 33.6699L19.8819 36.9038L15.5719 33.1989H17.8356ZM21.5499 34.4924L22.51 33.6699L11.2689 24.0034L22.51 14.3298L21.5499 13.5073L9.34867 23.9963L21.5499 34.4924Z" fill="#FFFBFA" fill-opacity="0.16"/>
<path d="M28.166 41.5296L27.2059 40.7001L26.3088 39.9268H19.1395L20.7303 41.5296H28.166Z" fill="#FFFBFA" fill-opacity="0.16"/>
<path d="M35.6367 41.5296L34.6766 40.7001L33.7796 39.9268H26.6102L28.201 41.5296H35.6367Z" fill="#FFFBFA" fill-opacity="0.16"/>
<path d="M35.6367 6.46973L34.6766 7.29929L33.7796 8.07261H26.6102L28.201 6.46973H35.6367Z" fill="#FFFBFA" fill-opacity="0.16"/>
<path d="M26.9122 13.543L28.0335 14.4991L29.1478 13.543L37.074 6.72369L38.1953 5.76758H35.9597L26.9122 13.543Z" fill="#FFFBFA" fill-opacity="0.16"/>
<path d="M26.9122 34.4581L28.0335 33.502L29.1478 34.4581L37.074 41.2774L38.1953 42.2335H35.9597L26.9122 34.4581Z" fill="#FFFBFA" fill-opacity="0.16"/>
<path d="M20.3796 6.46973H21.3537L21.4238 6.56112L1.14216 24.003L21.4238 41.4379L21.3537 41.5293H20.3796L-0.000171661 24.003L20.3796 6.46973Z" fill="#FFFBFA" fill-opacity="0.16"/>
<path d="M21.5151 37.5014L22.9658 36.25L24.4235 37.5014L34.7396 46.3735L36.1973 47.6249H33.2889L21.5151 37.5014Z" fill="#FFFBFA" fill-opacity="0.16"/>
<path d="M33.2888 47.6254L34.7395 46.374L36.0991 45.207H42V47.6254H33.2888Z" fill="#FFFBFA" fill-opacity="0.16"/>
<path d="M21.5151 10.4985L22.9658 11.7499L24.4235 10.4985L34.7396 1.62638L36.1973 0.375H33.2889L21.5151 10.4985Z" fill="#FFFBFA" fill-opacity="0.16"/>
<path d="M33.2888 0.375L34.7395 1.62638L36.0991 2.79339H42V0.375H33.2888Z" fill="#FFFBFA" fill-opacity="0.16"/>
</g>
<defs>
<clipPath id="clip0_430_2419">
<rect width="42" height="47.25" fill="white" transform="matrix(-1 0 0 1 42 0.375)"/>
</clipPath>
</defs>
</svg>
