<svg width="32" height="32" viewBox="0 0 32 32" fill="none" xmlns="http://www.w3.org/2000/svg">
<path d="M19.3213 24.7751L25.6214 22.4194L26.0883 23.6684L19.7882 26.0241L19.3213 24.7751Z" fill="#FFFBFA" fill-opacity="0.4"/>
<path d="M19.7918 29.3412L19.3252 28.091L30.1188 24.0571C30.4523 23.9367 30.6748 23.62 30.6748 23.2652C30.6748 22.9104 30.4523 22.594 30.1188 22.4733L28.2518 21.7816C27.2816 21.4177 26.2539 21.2314 25.2178 21.2317H25.2095C24.1734 21.2314 23.1457 21.4177 22.1758 21.7816L19.7918 22.6736L19.3252 21.4234L21.7089 20.5314C22.8285 20.1121 24.0142 19.8975 25.2095 19.898H25.2178C26.4133 19.8972 27.5991 20.1119 28.7184 20.5314L30.5854 21.2317C31.4359 21.5491 31.9997 22.3615 31.9997 23.2694C31.9997 24.1772 31.4359 24.9896 30.5854 25.3073L19.7918 29.3412Z" fill="#FFFBFA" fill-opacity="0.4"/>
<path d="M5.89648 22.8192L10.8851 20.9541L11.352 22.2031L6.36336 24.0684L5.89648 22.8192Z" fill="#FFFBFA" fill-opacity="0.4"/>
<path d="M6.78167 26.5657C5.58347 26.5672 4.39479 26.3526 3.27278 25.9323L1.41406 25.2323C0.563817 24.9146 0 24.1022 0 23.1943C0 22.2864 0.563817 21.474 1.41406 21.1564L10.8908 17.6143L11.3577 18.8645L1.88094 22.4066C1.54738 22.5272 1.32493 22.8437 1.32493 23.1985C1.32493 23.5533 1.54738 23.8697 1.88094 23.9903L3.74795 24.6821C5.70752 25.4115 7.86438 25.4115 9.82394 24.6821L10.8991 24.2819L11.366 25.5321L10.2906 25.9323C9.16856 26.3528 7.97988 26.5674 6.78167 26.5657Z" fill="#FFFBFA" fill-opacity="0.4"/>
<path d="M18.0004 28.3662L12.666 26.8076V2.74512L21.8761 5.43723C24.7093 6.28185 26.656 8.88166 26.6684 11.8382V15.2306C26.6684 16.7036 25.4744 17.8976 24.0014 17.8976H22.0011C20.528 17.8976 19.3339 16.7036 19.3339 15.2306V10.5631C19.3339 10.1949 19.0355 9.89624 18.667 9.89624C18.2988 9.89624 18.0004 10.1949 18.0004 10.5631V28.3662ZM13.9997 25.8074L16.6667 26.5907V10.5631C16.6667 9.45842 17.5624 8.56276 18.667 8.56276C19.772 8.56276 20.6674 9.45842 20.6674 10.5631V15.2306C20.6674 15.9671 21.2647 16.5641 22.0011 16.5641H24.0014C24.7379 16.5641 25.3349 15.9671 25.3349 15.2306V11.8382C25.3261 9.47332 23.768 7.39386 21.501 6.72065L13.9997 4.52032V25.8074Z" fill="#FFFBFA" fill-opacity="0.4"/>
</svg>
