<svg width="32" height="32" viewBox="0 0 32 32" fill="none" xmlns="http://www.w3.org/2000/svg">
<path d="M16 0.375C7.37056 0.375 0.375 7.37056 0.375 16C0.375 24.6294 7.37056 31.625 16 31.625C24.6294 31.625 31.625 24.6294 31.625 16C31.625 7.37056 24.6294 0.375 16 0.375ZM21.3307 17.6959L16.0479 21.5139C15.8562 23.5771 14.0917 25.1918 11.966 25.1918C11.0322 25.1924 10.126 24.8752 9.39643 24.2924C8.66686 23.7095 8.15737 22.8958 7.95175 21.9849L5.17225 20.8804V15.7449L9.86875 17.6231C10.6017 17.1856 11.425 16.9895 12.3833 17.0736L15.8112 12.2072C15.8337 9.22456 18.2976 6.80819 21.3195 6.80819C24.3584 6.80819 26.8222 9.25262 26.8278 12.2465C26.8277 15.2625 24.3583 17.6959 21.3307 17.6959Z" fill="#FFFBFA"/>
<path d="M11.9663 18.1221C11.7463 18.1214 11.5268 18.1458 11.3123 18.195L12.5696 18.6995C12.8614 18.813 13.1278 18.9833 13.3532 19.2006C13.5787 19.4178 13.7588 19.6776 13.8831 19.965C14.0074 20.2523 14.0734 20.5615 14.0773 20.8746C14.0812 21.1876 14.0229 21.4983 13.9058 21.7887C13.7872 22.0809 13.612 22.3468 13.3905 22.5712C13.1689 22.7957 12.9052 22.9742 12.6146 23.0966C12.3239 23.2189 12.012 23.2828 11.6966 23.2844C11.3812 23.2861 11.0686 23.2255 10.7767 23.1062C10.2862 22.9156 9.78445 22.7081 9.29395 22.5231C9.53996 22.9989 9.90823 23.4005 10.3609 23.6867C10.8135 23.973 11.3343 24.1335 11.8695 24.1518C12.4048 24.1701 12.9353 24.0456 13.4064 23.791C13.8776 23.5363 14.2725 23.1608 14.5504 22.7031C14.8284 22.2453 14.9794 21.7217 14.988 21.1862C14.9966 20.6507 14.8625 20.1226 14.5993 19.6561C14.3362 19.1897 13.9536 18.8017 13.4908 18.5321C13.0281 18.2625 12.5019 18.121 11.9663 18.1221Z" fill="#FFFBFA"/>
<path d="M21.3255 8.60205C19.2789 8.60205 17.627 10.2392 17.627 12.2521C17.627 14.276 19.2845 15.9021 21.3255 15.9021C23.3495 15.9077 25.013 14.2762 25.0071 12.2521C25.0071 10.2392 23.3496 8.60205 21.3255 8.60205ZM21.317 14.4439C20.8845 14.4392 20.463 14.3067 20.1056 14.0631C19.7482 13.8194 19.4709 13.4754 19.3085 13.0745C19.1462 12.6735 19.1061 12.2335 19.1934 11.8098C19.2806 11.3862 19.4912 10.9978 19.7987 10.6935C20.1062 10.3893 20.4968 10.1828 20.9214 10.1002C21.346 10.0175 21.7856 10.0623 22.1848 10.2289C22.5839 10.3955 22.9249 10.6764 23.1648 11.0364C23.4046 11.3964 23.5326 11.8193 23.5326 12.2519C23.5315 12.5414 23.4733 12.8279 23.3613 13.0949C23.2493 13.3619 23.0857 13.6042 22.8799 13.8078C22.6741 14.0115 22.4301 14.1725 22.1619 14.2816C21.8937 14.3908 21.6066 14.4459 21.3171 14.4439H21.317Z" fill="#FFFBFA"/>
</svg>
