<svg width="32" height="32" viewBox="0 0 32 32" fill="none" xmlns="http://www.w3.org/2000/svg">
<g clip-path="url(#clip0_1_10576)">
<path d="M20.952 15.238C19.0586 15.238 17.5234 13.7031 17.5234 11.8094C17.5234 9.91602 19.0586 8.38086 20.952 8.38086C22.8457 8.38086 24.3806 9.91602 24.3806 11.8094C24.3806 13.7031 22.8457 15.238 20.952 15.238ZM20.952 9.90486C19.9001 9.90486 19.0474 10.7575 19.0474 11.8094C19.0474 12.8616 19.9001 13.7143 20.952 13.7143C22.0042 13.7143 22.8569 12.8616 22.8569 11.8094C22.8569 10.7575 22.0042 9.90486 20.952 9.90486Z" fill="#FFFBFA" fill-opacity="0.4"/>
<path d="M16 32C8.78432 31.9877 2.46763 27.1526 0.571429 20.1906L0.200056 18.8189L7.60965 21.2857V21.8189C7.64676 23.4104 8.58231 24.8432 10.0243 25.5173C11.4665 26.1914 13.166 25.9902 14.4107 24.998C15.6554 24.0059 16.2307 22.3943 15.8954 20.8382L15.7999 20.3809L20.2857 16.7143L20.5904 16.7333L20.9523 16.7525C23.0525 16.7734 24.942 15.4796 25.6816 13.5142C26.4216 11.5485 25.8544 9.33008 24.2617 7.96094C22.6691 6.59208 20.3906 6.36412 18.5583 7.39063C16.7263 8.41713 15.7307 10.4794 16.0667 12.5525L16.1144 12.8477L12.8189 17.6097L12.3619 17.5525C10.9752 17.3845 9.59403 17.9076 8.66657 18.9523L8.33343 19.3334L0 16.5525V16C0 7.18108 7.18108 0 16 0C24.8189 0 32 7.18108 32 16C32 24.8189 24.8189 32 16 32ZM2.50474 21.1906C4.65541 26.7746 10.0162 30.4632 16 30.4763C23.981 30.4763 30.4763 23.981 30.4763 16C30.4763 8.01897 23.981 1.52372 16 1.52372C8.20006 1.52372 1.81892 7.72377 1.5332 15.457L7.8856 17.5714C9.01339 16.4989 10.531 15.9344 12.0857 16.0095L14.5237 12.4858C14.4983 12.2612 14.4858 12.0354 14.4858 11.8094C14.4858 8.2327 17.3853 5.33343 20.9618 5.33343C24.5385 5.33343 27.4381 8.2327 27.4381 11.8094C27.4381 15.3862 24.5385 18.2857 20.9618 18.2857H20.7999L17.4858 20.9905C17.517 21.2305 17.5329 21.4724 17.5332 21.7143C17.5123 24.7196 15.1671 27.1948 12.1677 27.3781C9.16797 27.5614 6.53906 25.3898 6.15234 22.4096L2.50474 21.1906Z" fill="#FFFBFA" fill-opacity="0.4"/>
<path d="M11.8097 24.3808C11.3078 24.3808 10.8158 24.2388 10.3906 23.9715L11.2003 22.676C11.6507 22.952 12.2316 22.8831 12.6052 22.5095C12.9785 22.1361 13.0474 21.5552 12.7718 21.1046L14.067 20.2952C14.5834 21.1169 14.6127 22.1543 14.1434 23.0039C13.6741 23.8532 12.7804 24.3808 11.8097 24.3808Z" fill="#FFFBFA" fill-opacity="0.4"/>
</g>
<defs>
<clipPath id="clip0_1_10576">
<rect width="32" height="32" fill="white"/>
</clipPath>
</defs>
</svg>
