<svg width="857" height="60" viewBox="0 0 857 60" fill="none" xmlns="http://www.w3.org/2000/svg">
<g clip-path="url(#clip0_1_10965)">
<path d="M19.3983 34.538L24.6825 30.0035L19.3983 25.462L21.3116 23.8169L28.502 30.0035L21.3116 36.183L19.3983 34.538Z" fill="#FFFBFA" fill-opacity="0.16"/>
<path d="M28.166 12.4702L27.2059 13.2998L26.3088 14.0731H19.1395L20.7303 12.4702H28.166Z" fill="#FFFBFA" fill-opacity="0.16"/>
<path d="M17.8356 39.1989L15.2916 37.0054L12.9228 34.9667H10.6662L4.88446 29.9963L10.6662 25.026H12.9158L15.2846 22.9872L17.8286 20.7938H15.5719L19.8819 17.0889L23.6523 20.3228L12.4112 29.9963L23.6523 39.6699L19.8819 42.9038L15.5719 39.1989H17.8356ZM21.5499 40.4924L22.51 39.6699L11.2689 30.0034L22.51 20.3298L21.5499 19.5073L9.34867 29.9963L21.5499 40.4924Z" fill="#FFFBFA" fill-opacity="0.16"/>
<path d="M28.166 47.5296L27.2059 46.7001L26.3088 45.9268H19.1395L20.7303 47.5296H28.166Z" fill="#FFFBFA" fill-opacity="0.16"/>
<path d="M35.6367 47.5296L34.6766 46.7001L33.7796 45.9268H26.6102L28.201 47.5296H35.6367Z" fill="#FFFBFA" fill-opacity="0.16"/>
<path d="M35.6367 12.4702L34.6766 13.2998L33.7796 14.0731H26.6102L28.201 12.4702H35.6367Z" fill="#FFFBFA" fill-opacity="0.16"/>
<path d="M26.9112 19.5425L28.0325 20.4986L29.1468 19.5425L37.073 12.7232L38.1943 11.7671H35.9587L26.9112 19.5425Z" fill="#FFFBFA" fill-opacity="0.16"/>
<path d="M26.9112 40.4576L28.0325 39.5015L29.1468 40.4576L37.073 47.2769L38.1943 48.233H35.9587L26.9112 40.4576Z" fill="#FFFBFA" fill-opacity="0.16"/>
<path d="M20.3796 12.4702H21.3537L21.4238 12.5616L1.14216 30.0035L21.4238 47.4384L21.3537 47.5298H20.3796L-0.000171661 30.0035L20.3796 12.4702Z" fill="#FFFBFA" fill-opacity="0.16"/>
<path d="M21.5151 43.5014L22.9658 42.25L24.4235 43.5014L34.7396 52.3735L36.1973 53.6249H33.2889L21.5151 43.5014Z" fill="#FFFBFA" fill-opacity="0.16"/>
<path d="M33.2888 53.6249L34.7395 52.3736L36.0991 51.2065H42V53.6249H33.2888Z" fill="#FFFBFA" fill-opacity="0.16"/>
<path d="M21.5151 16.4985L22.9658 17.7499L24.4235 16.4985L34.7396 7.62638L36.1973 6.375H33.2889L21.5151 16.4985Z" fill="#FFFBFA" fill-opacity="0.16"/>
<path d="M33.2888 6.375L34.7395 7.62638L36.0991 8.79339H42V6.375H33.2888Z" fill="#FFFBFA" fill-opacity="0.16"/>
</g>
<path d="M171.696 48C170.416 48 169.232 47.68 168.144 47.04C167.056 46.4 166.192 45.536 165.552 44.448C164.912 43.36 164.592 42.176 164.592 40.896V13.44H172.032V40.512H191.616V13.44H199.152V40.896C199.152 42.176 198.816 43.36 198.144 44.448C197.504 45.536 196.64 46.4 195.552 47.04C194.496 47.68 193.328 48 192.048 48H171.696ZM206.358 48V13.488H233.766C235.078 13.488 236.262 13.808 237.318 14.448C238.406 15.088 239.27 15.952 239.91 17.04C240.582 18.128 240.918 19.312 240.918 20.592V29.52C240.918 30.8 240.582 31.984 239.91 33.072C239.27 34.16 238.406 35.024 237.318 35.664C236.262 36.304 235.078 36.624 233.766 36.624L213.798 36.672V48H206.358ZM213.798 29.136H233.382V20.928H213.798V29.136ZM253.351 48C252.039 48 250.839 47.68 249.751 47.04C248.695 46.4 247.847 45.552 247.207 44.496C246.567 43.408 246.247 42.208 246.247 40.896V20.544C246.247 19.232 246.567 18.048 247.207 16.992C247.847 15.904 248.695 15.04 249.751 14.4C250.839 13.76 252.039 13.44 253.351 13.44H280.711V20.928H255.271C254.759 20.928 254.359 21.056 254.071 21.312C253.815 21.568 253.687 21.968 253.687 22.512V38.928C253.687 39.44 253.815 39.84 254.071 40.128C254.359 40.384 254.759 40.512 255.271 40.512H280.711V48H253.351ZM294.644 48C293.364 48 292.18 47.68 291.092 47.04C290.004 46.4 289.14 45.536 288.5 44.448C287.86 43.36 287.54 42.176 287.54 40.896V20.544C287.54 19.232 287.86 18.048 288.5 16.992C289.14 15.904 290.004 15.04 291.092 14.4C292.18 13.76 293.364 13.44 294.644 13.44H314.996C316.276 13.44 317.444 13.76 318.5 14.4C319.588 15.04 320.452 15.904 321.092 16.992C321.764 18.048 322.1 19.232 322.1 20.544V40.896C322.1 42.176 321.764 43.36 321.092 44.448C320.452 45.536 319.588 46.4 318.5 47.04C317.444 47.68 316.276 48 314.996 48H294.644ZM294.98 40.512H314.564V20.928H294.98V40.512ZM329.305 48V13.44H336.985L348.697 27.408L360.361 13.44H368.089V48H360.601V24.816L348.697 39.024L336.745 24.864V48H329.305ZM374.557 48V13.44H381.901V48H374.557ZM387.942 48V13.44H395.622L414.966 36.48V13.44H422.502V48H414.822L395.382 24.864V48H387.942ZM436.904 48C435.624 48 434.44 47.68 433.352 47.04C432.264 46.4 431.4 45.536 430.76 44.448C430.12 43.36 429.8 42.176 429.8 40.896V20.544C429.8 19.232 430.12 18.048 430.76 16.992C431.4 15.904 432.264 15.04 433.352 14.4C434.44 13.76 435.624 13.44 436.904 13.44H457.208C458.52 13.44 459.704 13.76 460.76 14.4C461.848 15.04 462.712 15.904 463.352 16.992C464.024 18.048 464.36 19.232 464.36 20.544V23.808H456.824V20.928H437.24V40.512H456.824V35.328H449.336V27.84H464.36V40.896C464.36 42.176 464.024 43.36 463.352 44.448C462.712 45.536 461.848 46.4 460.76 47.04C459.704 47.68 458.52 48 457.208 48H436.904ZM496.056 48C494.776 48 493.592 47.68 492.504 47.04C491.416 46.4 490.552 45.536 489.912 44.448C489.272 43.36 488.952 42.176 488.952 40.896V20.544C488.952 19.232 489.272 18.048 489.912 16.992C490.552 15.904 491.416 15.04 492.504 14.4C493.592 13.76 494.776 13.44 496.056 13.44H516.36C517.672 13.44 518.856 13.76 519.912 14.4C521 15.04 521.864 15.904 522.504 16.992C523.176 18.048 523.512 19.232 523.512 20.544V23.808H515.976V20.928H496.392V40.512H515.976V35.328H508.488V27.84H523.512V40.896C523.512 42.176 523.176 43.36 522.504 44.448C521.864 45.536 521 46.4 519.912 47.04C518.856 47.68 517.672 48 516.36 48H496.056ZM530.812 48V20.544C530.812 19.232 531.132 18.048 531.772 16.992C532.412 15.904 533.276 15.04 534.364 14.4C535.452 13.76 536.636 13.44 537.916 13.44H558.22C559.532 13.44 560.716 13.76 561.772 14.4C562.86 15.04 563.724 15.904 564.364 16.992C565.036 18.048 565.372 19.232 565.372 20.544V48H557.836V36.864H538.252V48H530.812ZM538.252 29.376H557.836V20.928H538.252V29.376ZM572.761 48V13.44H580.441L592.153 27.408L603.817 13.44H611.545V48H604.057V24.816L592.153 39.024L580.201 24.864V48H572.761ZM619.308 48V13.44H651.228V20.928H626.844V26.976H646.476V34.464H626.844V40.512H651.228V48H619.308ZM664.89 48C663.61 48 662.426 47.68 661.338 47.04C660.25 46.4 659.386 45.536 658.746 44.448C658.106 43.36 657.786 42.176 657.786 40.896V37.68H665.226V40.512H684.81V34.464H664.89C663.61 34.464 662.426 34.144 661.338 33.504C660.25 32.864 659.386 32.016 658.746 30.96C658.106 29.872 657.786 28.672 657.786 27.36V20.544C657.786 19.232 658.106 18.048 658.746 16.992C659.386 15.904 660.25 15.04 661.338 14.4C662.426 13.76 663.61 13.44 664.89 13.44H685.242C686.522 13.44 687.69 13.76 688.746 14.4C689.834 15.04 690.698 15.904 691.338 16.992C692.01 18.048 692.346 19.232 692.346 20.544V23.76H684.81V20.928H665.226V26.976H685.242C686.522 26.976 687.69 27.296 688.746 27.936C689.834 28.576 690.698 29.44 691.338 30.528C692.01 31.584 692.346 32.768 692.346 34.08V40.896C692.346 42.176 692.01 43.36 691.338 44.448C690.698 45.536 689.834 46.4 688.746 47.04C687.69 47.68 686.522 48 685.242 48H664.89Z" fill="#FFFBFA"/>
<path d="M837.602 34.61L832.318 30.0035L837.602 25.3899L835.688 23.7188L828.498 30.0035L835.688 36.2812L837.602 34.61Z" fill="#FFFBFA" fill-opacity="0.16"/>
<path d="M828.834 12.1919L829.794 13.0346L830.691 13.8202H837.861L836.27 12.1919H828.834Z" fill="#FFFBFA" fill-opacity="0.16"/>
<path d="M839.164 39.3452L841.708 37.117L844.077 35.0459H846.334L852.116 29.9966L846.334 24.9474H844.084L841.715 22.8762L839.171 20.648H841.428L837.118 16.8843L833.348 20.1695L844.589 29.9966L833.348 39.8237L837.118 43.1089L841.428 39.3452H839.164ZM835.45 40.6593L834.49 39.8237L845.731 30.0038L834.49 20.1766L835.45 19.3411L847.651 29.9966L835.45 40.6593Z" fill="#FFFBFA" fill-opacity="0.16"/>
<path d="M828.834 47.808L829.794 46.9653L830.691 46.1797H837.861L836.27 47.808H828.834Z" fill="#FFFBFA" fill-opacity="0.16"/>
<path d="M821.363 47.808L822.323 46.9653L823.22 46.1797H830.39L828.799 47.808H821.363Z" fill="#FFFBFA" fill-opacity="0.16"/>
<path d="M821.363 12.1919L822.323 13.0346L823.22 13.8202H830.39L828.799 12.1919H821.363Z" fill="#FFFBFA" fill-opacity="0.16"/>
<path d="M830.089 19.3764L828.968 20.3476L827.853 19.3764L819.927 12.4488L818.806 11.4775H821.041L830.089 19.3764Z" fill="#FFFBFA" fill-opacity="0.16"/>
<path d="M830.089 40.6236L828.968 39.6523L827.853 40.6236L819.927 47.5512L818.806 48.5225H821.041L830.089 40.6236Z" fill="#FFFBFA" fill-opacity="0.16"/>
<path d="M836.62 12.1919H835.646L835.576 12.2847L855.858 30.0035L835.576 47.7152L835.646 47.808H836.62L857 30.0035L836.62 12.1919Z" fill="#FFFBFA" fill-opacity="0.16"/>
<path d="M835.485 43.7156L834.034 42.4443L832.576 43.7156L822.26 52.7285L820.803 53.9998H823.711L835.485 43.7156Z" fill="#FFFBFA" fill-opacity="0.16"/>
<path d="M823.711 53.9997L822.26 52.7285L820.901 51.543H815V53.9997H823.711Z" fill="#FFFBFA" fill-opacity="0.16"/>
<path d="M835.485 16.2842L834.034 17.5554L832.576 16.2842L822.26 7.27124L820.803 6H823.711L835.485 16.2842Z" fill="#FFFBFA" fill-opacity="0.16"/>
<path d="M823.711 6L822.26 7.27124L820.901 8.45678H815V6H823.711Z" fill="#FFFBFA" fill-opacity="0.16"/>
<defs>
<clipPath id="clip0_1_10965">
<rect width="42" height="47.25" fill="white" transform="matrix(-1 0 0 1 42 6.375)"/>
</clipPath>
</defs>
</svg>
