<svg width="32" height="32" viewBox="0 0 32 32" fill="none" xmlns="http://www.w3.org/2000/svg">
<path d="M23.1617 1.68931C20.9277 0.568682 18.518 0.000244141 15.9995 0.000244141C13.516 0.000244141 11.1356 0.553682 8.92496 1.64549C8.69583 1.75868 8.55608 1.99693 8.56921 2.25206C8.58202 2.50718 8.74559 2.73043 8.98496 2.81987C11.4166 3.72599 13.6823 4.94349 15.7186 6.43806C15.8315 6.52124 15.9644 6.56249 16.0976 6.56249C16.2308 6.56249 16.3636 6.52124 16.4765 6.43806C18.4829 4.96537 20.7116 3.76162 23.1007 2.86049C23.3386 2.77106 23.5009 2.54843 23.5141 2.29456C23.5275 2.04074 23.389 1.80312 23.1617 1.68931ZM16.0976 5.13243C14.4776 3.98431 12.7258 3.00131 10.8698 2.19774C14.1715 0.966432 17.9439 0.980807 21.2344 2.23774C19.4128 3.03318 17.6913 4.00306 16.0976 5.13243Z" fill="#FFFBFA" fill-opacity="0.4"/>
<path d="M26.0381 3.54007C25.8283 3.37063 25.5347 3.3512 25.3039 3.49132C23.7481 4.43495 21.3418 5.97888 18.7151 7.97501C18.5672 8.08695 18.4756 8.25763 18.4634 8.44338C18.4515 8.62851 18.5203 8.80982 18.6523 8.93988C19.5799 9.85726 20.4514 10.8565 21.2424 11.9103C24.8918 16.7766 26.3232 20.5862 26.8347 23.2032C24.9878 18.9891 21.5287 14.7005 16.5139 10.4157C16.2744 10.2106 15.9217 10.2106 15.6822 10.4157C10.6601 14.7068 7.1995 18.9997 5.35444 23.2176C5.86469 20.5786 7.3045 16.7766 10.954 11.9103C11.7448 10.8566 12.6162 9.85663 13.5438 8.93988C13.6761 8.80982 13.7449 8.62845 13.7329 8.44338C13.7207 8.25763 13.6291 8.08695 13.4812 7.97501C10.8076 5.94395 8.36131 4.3787 6.77956 3.4232C6.55037 3.28438 6.25956 3.30376 6.05013 3.46945C2.20525 6.52607 0 11.0935 0 15.9999C0 19.9001 1.4195 23.6578 3.99681 26.5793C4.06956 26.6619 4.16031 26.7225 4.25944 26.7582C4.28662 26.8608 4.33919 26.9564 4.4145 27.0352C7.46519 30.2369 11.5796 31.9998 15.9998 31.9998C20.4447 31.9998 24.7264 30.1275 27.7467 26.8633C27.8331 26.7701 27.8884 26.655 27.9084 26.5331C28.0259 26.4987 28.1335 26.4305 28.2164 26.3329C30.6562 23.4508 32 19.7813 32 15.9999C32 11.1373 29.8269 6.59607 26.0381 3.54007ZM3.89269 24.3725C2.19869 21.9243 1.28069 19.0084 1.28069 15.9999C1.28069 11.6344 3.17825 7.56101 6.50319 4.75382C7.93019 5.6287 9.93069 6.92501 12.124 8.55651C11.3448 9.36945 10.6088 10.2362 9.92969 11.1423C5.48325 17.0704 4.17881 21.5641 3.89269 24.3725ZM15.9999 30.7191C12.0509 30.7191 8.367 29.1895 5.58706 26.4036C6.84931 21.6461 10.3827 16.7191 16.0981 11.7476C21.7489 16.6628 25.268 21.5373 26.5665 26.2473C23.8034 29.0932 19.9726 30.7191 15.9999 30.7191ZM22.2666 11.1416C21.5872 10.2361 20.8512 9.36945 20.072 8.55651C22.219 6.96001 24.1783 5.6862 25.579 4.82388C28.8517 7.62851 30.7192 11.6763 30.7192 15.9999C30.7192 18.9002 29.8604 21.7286 28.2742 24.1255C27.9391 21.3465 26.6021 16.9229 22.2666 11.1416Z" fill="#FFFBFA" fill-opacity="0.4"/>
</svg>
